<?xml version="1.0" standalone="no"?>
<!DOCTYPE svg PUBLIC "-//W3C//DTD SVG 20010904//EN"
 "http://www.w3.org/TR/2001/REC-SVG-20010904/DTD/svg10.dtd">
<svg version="1.0" xmlns="http://www.w3.org/2000/svg"
 width="460.000000pt" height="460.000000pt" viewBox="0 0 460.000000 460.000000"
 preserveAspectRatio="xMidYMid meet">
<metadata>
Created by potrace 1.11, written by Peter Selinger 2001-2013
</metadata>
<g transform="translate(0.000000,460.000000) scale(0.100000,-0.100000)"
fill="#000000" stroke="none">
<path d="M0 4003 c0 -503 2 -594 13 -578 13 17 15 16 26 -16 11 -30 14 -32 21
-14 4 11 3 22 -1 23 -5 2 -9 13 -8 25 0 21 1 21 10 2 8 -17 9 -15 6 11 -2 17
3 36 11 43 7 7 11 19 8 27 -3 8 0 11 11 7 8 -3 19 0 24 8 11 18 11 32 0 24
-16 -9 -21 11 -7 30 13 18 71 32 61 15 -3 -5 4 -14 15 -20 l21 -11 -21 40
c-11 23 -16 41 -11 41 5 0 12 -6 14 -12 4 -10 6 -9 6 1 1 11 4 11 16 1 10 -9
15 -9 15 -1 0 6 -5 11 -10 11 -6 0 -9 14 -8 30 1 17 6 30 10 30 8 0 10 -7 12
-39 1 -8 8 -16 16 -18 13 -4 13 -3 0 6 -11 8 -11 11 -2 11 9 0 8 7 -4 25 -9
14 -15 27 -13 28 2 2 13 9 23 17 18 13 19 13 12 0 -4 -9 -2 -8 7 2 8 10 17 14
21 10 4 -4 6 0 4 8 -2 8 -10 21 -18 28 -9 7 -1 6 19 -3 18 -9 31 -12 27 -7 -3
5 0 15 8 21 11 9 14 8 12 -5 0 -9 5 -19 12 -21 7 -3 10 1 6 10 -3 9 2 20 15
26 29 16 39 13 17 -4 -11 -8 -16 -18 -13 -22 9 -8 28 9 30 28 2 8 6 20 10 27
5 7 4 12 -2 12 -6 0 -11 -5 -11 -11 0 -5 -5 -7 -10 -4 -13 8 78 105 98 105 7
0 10 -5 6 -12 -4 -7 -3 -8 4 -4 9 5 9 13 2 26 -10 19 -4 50 10 50 5 0 11 -6
13 -12 4 -10 6 -10 6 0 1 6 7 12 15 12 7 0 19 7 26 15 10 13 9 15 -9 15 -11 0
-21 5 -21 11 0 6 7 8 16 5 8 -3 13 -2 10 2 -2 4 -1 14 5 22 7 12 9 10 9 -7 0
-24 15 -39 24 -24 4 5 1 11 -6 13 -21 7 2 28 31 28 22 0 27 4 27 22 -1 14 5
23 14 23 8 0 15 9 15 20 0 15 9 21 40 26 22 4 46 5 55 2 8 -2 3 3 -11 11 -42
24 -44 44 -5 41 23 -2 33 1 33 11 0 9 -6 13 -14 10 -8 -3 -11 -1 -8 4 8 14 32
13 37 -1 2 -7 13 -9 26 -4 20 6 21 9 10 22 -11 14 -10 15 7 10 12 -4 32 1 50
13 17 11 24 20 17 20 -7 0 -10 5 -7 10 3 6 1 10 -5 10 -7 0 -5 6 4 15 20 20
25 19 48 -10 26 -33 43 -32 22 0 -9 15 -13 25 -8 23 5 -2 19 7 31 19 13 13 28
21 35 19 7 -1 10 -1 6 1 -16 9 -7 25 9 19 10 -4 14 -4 11 0 -4 3 4 17 18 31
13 13 24 27 24 32 0 4 12 13 26 19 14 7 23 16 20 20 -12 19 9 30 29 15 20 -15
20 -15 -2 -8 -18 5 -22 3 -17 -9 3 -9 1 -16 -5 -16 -6 0 -11 -7 -11 -17 0 -14
2 -14 20 2 11 10 20 15 20 10 0 -4 13 8 30 26 26 30 27 35 12 41 -9 4 -11 7
-4 7 6 1 12 6 12 11 0 7 -215 10 -625 10 l-625 0 0 -597z m860 303 c0 -2 -7
-7 -16 -10 -8 -3 -12 -2 -9 4 6 10 25 14 25 6z m-395 -354 c-3 -3 -11 0 -18 7
-9 10 -8 11 6 5 10 -3 15 -9 12 -12z m-70 -58 c14 -6 12 -11 -12 -37 -15 -17
-20 -25 -10 -18 9 8 17 9 17 3 0 -15 -28 -22 -52 -13 -22 8 -22 9 10 27 17 11
30 25 27 32 -5 14 -3 14 20 6z m-78 -80 c-3 -3 -12 -4 -19 -1 -8 3 -5 6 6 6
11 1 17 -2 13 -5z"/>
<path d="M3900 4589 c0 -5 -4 -7 -10 -4 -5 3 -10 2 -10 -3 0 -6 11 -13 25 -16
14 -4 25 -13 25 -21 0 -8 5 -15 10 -15 6 0 10 6 10 14 0 9 9 14 20 13 24 -2
27 -27 3 -27 -9 0 -13 -3 -10 -7 4 -3 22 -6 42 -5 26 1 33 -2 28 -13 -4 -11
-1 -13 11 -9 22 9 74 -17 80 -39 3 -13 10 -17 20 -14 9 4 16 2 16 -3 0 -5 7
-7 15 -4 10 4 18 -3 25 -21 6 -15 19 -29 29 -32 13 -3 18 -10 13 -21 -5 -15
-3 -15 10 -4 14 11 19 9 32 -10 11 -15 16 -18 16 -8 1 9 6 5 14 -9 8 -14 11
-32 8 -40 -4 -10 -1 -13 12 -8 14 6 16 3 11 -16 -6 -18 -5 -20 6 -9 22 21 40
15 35 -13 -3 -18 1 -26 17 -31 29 -9 50 -31 36 -36 -19 -6 0 -48 22 -48 10 0
19 -4 19 -10 0 -5 9 -10 20 -10 11 0 20 -5 20 -11 0 -7 9 -9 21 -6 17 5 18 3
8 -9 -16 -20 -5 -28 13 -10 12 11 18 12 27 3 8 -8 11 57 11 256 l0 267 -350 0
c-240 0 -350 -3 -350 -11z m67 -15 c-3 -3 -12 -4 -19 -1 -8 3 -5 6 6 6 11 1
17 -2 13 -5z m499 -413 c-4 -5 0 -12 6 -14 8 -4 9 -6 2 -6 -6 -1 -17 6 -24 14
-10 12 -9 15 4 15 10 0 15 -4 12 -9z"/>
<path d="M2455 4532 c-29 -34 -144 -63 -205 -52 -37 7 -54 5 -95 -14 -47 -21
-55 -22 -95 -10 -49 15 -58 13 -35 -6 8 -7 15 -19 15 -27 0 -16 -48 -63 -64
-63 -7 0 -7 3 -1 8 19 14 13 40 -11 45 -13 2 -23 1 -22 -2 2 -21 -7 -26 -49
-24 -39 1 -51 -3 -77 -29 -32 -32 -57 -49 -176 -119 -41 -24 -84 -53 -95 -65
-16 -16 -27 -19 -53 -13 -29 6 -35 3 -49 -20 -9 -14 -24 -38 -35 -53 -19 -28
-19 -28 4 -29 13 -1 29 -1 36 0 6 1 12 -3 12 -9 0 -6 -4 -8 -10 -5 -5 3 -10 2
-10 -4 0 -5 -12 -8 -27 -6 -80 10 -136 14 -123 9 8 -4 23 -15 32 -24 16 -17
16 -19 -2 -35 -11 -10 -28 -15 -40 -12 -11 3 -23 1 -26 -4 -3 -5 -13 -9 -24
-9 -13 0 -17 -5 -13 -19 8 -31 -30 -46 -68 -27 -26 13 -33 13 -45 2 -7 -8 -11
-16 -8 -19 7 -6 -32 -47 -44 -47 -5 0 -27 -17 -50 -38 -28 -26 -42 -47 -42
-64 0 -14 -8 -32 -18 -42 -11 -9 -24 -34 -31 -55 -6 -21 -29 -57 -51 -80 -22
-23 -40 -49 -40 -59 0 -9 -7 -26 -15 -36 -15 -20 -12 -51 10 -96 8 -16 9 -33
4 -47 -11 -30 17 -120 47 -153 37 -41 50 -184 19 -206 -10 -8 -20 -25 -21 -40
-2 -14 -8 -32 -14 -39 -8 -10 -7 -25 4 -60 9 -25 16 -56 16 -68 0 -12 7 -31
16 -42 17 -23 17 -112 1 -175 -8 -29 -7 -46 6 -79 9 -23 17 -52 17 -65 0 -29
25 -81 64 -129 33 -42 39 -73 23 -132 -6 -22 -10 -46 -8 -52 3 -22 -61 -54
-94 -48 -22 4 -27 3 -18 -6 18 -18 3 -39 -28 -39 -31 0 -38 16 -14 34 12 9 15
38 16 141 0 132 -14 331 -25 342 -5 5 -11 -66 -7 -89 0 -5 -4 -8 -10 -8 -5 0
-8 -4 -5 -8 3 -5 -1 -9 -8 -9 -10 0 -12 8 -6 28 5 15 6 29 4 32 -3 2 -5 20 -6
40 l-1 35 -56 -30 c-105 -58 -97 -46 -105 -155 -4 -54 -7 -112 -7 -129 1 -24
-6 -38 -30 -58 -18 -15 -38 -25 -45 -22 -11 4 -10 -1 2 -19 16 -24 17 -45 11
-180 -1 -33 2 -85 6 -115 6 -45 6 -52 -4 -35 -7 11 -21 29 -31 39 -20 21 -24
61 -8 71 6 3 10 11 10 17 0 7 -5 6 -15 -2 -8 -7 -25 -10 -40 -6 -21 5 -25 12
-25 42 0 24 -4 34 -13 31 -6 -2 -11 -12 -9 -21 4 -23 -25 -31 -54 -16 -21 12
-35 52 -16 49 27 -4 41 2 35 17 -4 11 2 23 18 35 21 16 22 19 5 19 -10 0 -35
-13 -55 -30 -32 -24 -37 -34 -33 -59 2 -17 7 -30 11 -29 18 2 22 -4 11 -17
-18 -21 -30 -19 -31 8 -1 14 -4 9 -8 -12 -7 -43 -62 -81 -90 -64 -13 8 -19 6
-28 -13 -8 -17 -8 -26 -1 -31 7 -4 4 -11 -7 -20 -21 -15 -30 -49 -15 -58 6 -3
7 1 4 9 -7 19 7 21 24 4 9 -9 12 -7 12 11 0 13 -4 20 -11 16 -6 -4 -5 2 2 13
12 20 14 20 29 4 18 -18 22 -42 8 -42 -5 0 -7 -4 -4 -8 3 -4 -7 -8 -22 -8 -19
1 -26 -3 -24 -14 2 -10 -5 -7 -22 9 -14 13 -22 29 -19 35 4 6 -1 5 -10 -3 -9
-7 -14 -18 -10 -24 4 -6 0 -8 -10 -4 -9 3 -18 1 -20 -6 -3 -9 -7 -9 -17 0 -11
10 -11 18 -1 40 7 16 10 25 6 21 -4 -4 -16 -3 -27 3 -19 10 -19 11 -1 24 25
20 38 18 22 -2 -11 -15 -11 -16 1 -5 8 6 21 12 29 12 13 0 13 -2 2 -9 -7 -5
-9 -11 -5 -14 9 -5 60 31 53 37 -7 6 -48 26 -53 26 -3 0 -3 -7 0 -15 4 -8 1
-15 -5 -15 -6 0 -11 5 -11 11 0 6 -19 0 -42 -13 l-43 -23 -3 -75 c-2 -62 0
-77 14 -87 15 -11 15 -13 2 -13 -12 0 -15 -15 -17 -70 -1 -39 2 -70 6 -70 10
0 170 41 273 70 41 12 129 34 195 51 66 16 140 35 165 43 50 16 87 25 245 61
l109 26 18 -23 c11 -15 13 -27 7 -34 -6 -8 -5 -21 2 -38 7 -14 10 -28 7 -31
-3 -3 -63 -17 -134 -31 -138 -27 -254 -51 -399 -83 -50 -11 -149 -30 -220 -41
-72 -11 -161 -25 -200 -32 l-70 -13 -3 -92 -3 -92 48 -25 c44 -23 46 -25 20
-26 -16 0 -37 5 -48 10 -19 11 -19 1 -19 -595 l0 -605 695 0 695 0 1 25 c1 14
3 30 4 35 1 6 3 65 4 133 1 129 11 168 34 132 21 -34 38 -88 29 -94 -12 -9 -6
-52 9 -63 11 -8 10 -9 -3 -4 -20 6 -22 2 -9 -23 8 -13 5 -17 -12 -18 -12 0
-17 1 -10 4 15 5 5 33 -11 33 -20 0 -12 -58 10 -76 18 -14 18 -15 -3 -5 -19
10 -22 8 -20 -8 0 -11 4 -18 7 -16 3 2 12 0 20 -6 12 -7 10 -9 -8 -9 -19 0
-21 -2 -10 -14 7 -8 15 -10 16 -5 2 5 8 9 14 9 6 0 8 -7 4 -15 -5 -13 63 -15
576 -15 539 0 583 1 601 17 19 17 20 17 14 1 -10 -27 53 -24 76 3 22 25 16 37
-6 14 -20 -20 -28 -19 -20 2 4 11 3 14 -6 9 -7 -5 -21 0 -32 10 -17 16 -22 16
-29 4 -13 -21 -12 -7 2 27 6 15 10 32 9 36 -1 5 3 6 8 2 6 -3 8 -13 5 -23 -2
-9 1 -7 7 6 13 24 29 30 29 10 0 -6 3 -9 6 -5 3 3 -1 16 -10 29 -9 12 -16 17
-16 10 0 -7 -11 -2 -26 12 -28 25 -74 39 -99 30 -8 -4 -15 -1 -15 5 0 6 -9 11
-19 11 -11 0 -27 7 -35 16 -9 8 -20 13 -25 10 -5 -4 -12 0 -14 6 -3 8 -6 6 -6
-4 -1 -10 4 -18 9 -18 6 0 10 -4 10 -8 0 -13 -53 -13 -63 0 -6 9 -7 6 -4 -9 4
-18 1 -23 -14 -23 -10 0 -19 -4 -19 -10 0 -16 -27 -11 -34 6 -9 23 3 37 20 23
12 -10 13 -9 8 5 -3 9 -1 16 6 16 6 0 8 5 4 12 -5 7 -2 9 9 5 9 -3 18 -1 21 6
3 9 5 8 5 -1 1 -10 6 -10 23 2 12 9 41 16 64 16 36 0 41 -3 37 -19 -5 -21 17
-33 38 -20 12 7 12 9 -1 10 -8 1 -19 1 -25 0 -5 -1 -3 4 6 11 16 13 15 43 -2
33 -5 -4 -6 1 -3 9 3 9 9 16 13 16 4 0 16 8 27 18 30 26 62 42 84 42 11 0 19
3 18 8 -3 12 36 72 47 72 6 0 3 5 -5 10 -13 8 -12 10 3 10 11 0 17 5 14 13 -2
6 5 25 15 40 17 24 22 26 36 15 15 -12 16 -11 4 4 -19 24 -11 33 71 71 40 19
83 46 96 61 14 14 32 26 40 26 12 0 13 2 4 8 -9 6 7 29 53 77 36 39 76 86 88
105 13 19 58 80 101 135 43 55 79 106 80 115 2 17 10 42 30 85 l14 30 0 -30
c1 -29 35 -64 49 -50 4 3 0 10 -7 14 -21 13 25 34 76 35 32 1 42 5 38 15 -4
11 13 33 80 100 26 26 132 124 145 134 34 27 42 45 30 67 -10 18 -8 26 11 46
12 13 27 33 33 45 13 26 39 39 30 16 -4 -12 0 -14 15 -10 12 3 21 1 21 -6 0
-6 4 -11 10 -11 5 0 0 16 -11 35 -23 39 -31 146 -11 153 7 2 10 7 7 12 -9 15
40 -3 52 -19 8 -10 12 -11 13 -4 0 7 -10 21 -22 33 -31 29 -32 58 -3 113 l27
48 -24 19 c-18 15 -20 19 -6 20 11 0 15 6 11 20 -3 11 0 26 6 33 6 8 8 16 5
20 -3 3 3 8 14 11 20 7 59 56 44 56 -4 0 -16 25 -26 54 -17 48 -17 61 -6 101
17 60 8 173 -21 270 -23 80 -20 123 11 133 13 5 13 3 1 -12 -20 -24 -7 -30 15
-5 18 20 18 22 0 87 -25 93 -35 146 -42 222 -4 42 -20 100 -46 165 -22 55 -43
106 -46 114 -4 10 -1 12 8 6 10 -6 12 -1 7 25 -4 18 -7 42 -7 54 0 12 -7 31
-16 42 -8 10 -13 13 -9 7 13 -27 -7 -34 -31 -12 -28 26 -31 39 -9 39 8 0 15 5
15 12 0 6 11 1 25 -12 30 -28 33 -18 5 17 -11 14 -20 34 -20 45 0 11 -16 39
-35 62 -19 24 -35 54 -35 66 0 23 0 23 15 4 8 -10 15 -14 15 -8 0 5 -16 26
-36 45 -20 18 -45 52 -56 74 -28 57 -68 112 -68 91 0 -9 -4 -16 -10 -16 -10 0
-14 15 -11 34 1 5 -6 18 -16 30 -10 11 -11 15 -3 9 24 -22 35 -14 14 10 -11
12 -31 45 -45 72 -31 64 -29 62 -39 46 -5 -9 -12 4 -21 42 -6 31 -20 64 -30
73 -25 23 -34 -1 -9 -26 13 -13 20 -33 20 -57 0 -26 8 -45 27 -65 27 -28 27
-47 0 -31 -18 9 -81 100 -91 128 -4 11 -27 42 -51 69 -25 28 -45 53 -45 57 0
3 -18 18 -40 33 -22 15 -65 49 -95 76 -30 28 -61 51 -68 52 -6 0 -24 2 -39 3
-15 1 -34 8 -42 14 -8 7 -20 10 -26 6 -7 -4 -24 4 -38 17 -59 53 -107 78 -150
78 -36 0 -44 4 -52 26 -10 24 -13 25 -53 17 -52 -10 -137 -10 -158 0 -9 5 -24
0 -39 -13 -26 -22 -40 -19 -20 5 7 9 11 17 9 19 -2 2 -13 -8 -24 -22z m359
-77 c20 -14 43 -25 49 -25 14 0 37 -20 37 -32 0 -13 -53 -9 -103 8 -37 13 -47
21 -47 38 0 43 14 45 64 11z m-650 -30 c11 -8 16 -18 12 -22 -3 -4 -16 3 -28
15 -25 25 -13 29 16 7z m239 -12 c-7 -2 -19 -2 -25 0 -7 3 -2 5 12 5 14 0 19
-2 13 -5z m-168 -28 c21 0 31 -5 33 -19 6 -28 -11 -38 -46 -25 -25 9 -32 17
-32 37 0 15 4 23 8 17 4 -5 20 -10 37 -10z m492 0 c0 -8 -4 -15 -9 -15 -10 0
-11 14 -1 23 9 10 10 9 10 -8z m-74 -22 c-38 -7 -26 -19 33 -33 33 -8 61 -22
70 -34 23 -33 17 -36 -32 -16 -54 24 -65 25 -58 6 3 -8 1 -23 -5 -34 -8 -15
-4 -25 19 -50 16 -18 34 -32 40 -32 6 0 -3 14 -20 30 -55 53 -14 66 43 13 57
-53 102 -78 91 -50 -11 31 26 11 45 -23 18 -32 19 -42 10 -69 -6 -18 -9 -35
-5 -38 3 -4 6 0 6 9 0 35 83 67 122 47 14 -7 16 -6 12 6 -4 9 0 15 9 15 20 0
29 -27 17 -50 -8 -16 -2 -25 36 -57 27 -21 58 -38 73 -38 40 -1 51 -13 50 -53
0 -33 -1 -35 -11 -15 -6 12 -17 24 -26 28 -12 4 -11 0 3 -22 9 -16 27 -37 40
-48 12 -11 43 -63 68 -115 24 -53 56 -109 69 -125 34 -41 50 -73 43 -85 -11
-18 -66 35 -109 102 -88 140 -157 220 -198 234 -13 4 -18 19 -20 57 -3 45 -6
52 -25 55 -19 3 -23 -1 -23 -23 0 -20 -4 -26 -17 -23 -10 2 -17 10 -15 16 1 7
-2 12 -8 12 -13 0 -13 -19 1 -58 8 -23 7 -36 -2 -54 -17 -30 -20 -48 -8 -48 5
0 9 4 9 9 0 5 14 14 31 20 40 14 92 14 84 1 -3 -5 -17 -10 -31 -10 -15 0 -23
-4 -19 -10 4 -6 10 -8 14 -5 5 2 20 -9 34 -25 15 -16 22 -32 17 -35 -6 -3 -10
-17 -10 -31 0 -13 -5 -24 -11 -24 -5 0 -7 -5 -3 -12 6 -9 9 -9 12 1 3 9 8 9
21 -3 15 -13 16 -10 19 35 2 42 -1 53 -24 74 -24 22 -26 45 -3 45 12 0 78 -74
103 -114 10 -17 24 -35 30 -39 6 -5 2 -7 -11 -4 -13 3 -23 2 -23 -2 0 -4 24
-36 54 -71 53 -65 96 -134 96 -156 0 -27 -37 1 -65 48 -31 53 -78 85 -68 47 3
-11 18 -27 34 -36 16 -10 29 -21 29 -25 0 -4 23 -31 50 -59 47 -48 63 -79 39
-79 -5 0 -8 4 -5 9 3 5 -2 15 -11 22 -14 12 -15 11 -9 -9 8 -23 0 -62 -13 -62
-4 0 -18 21 -30 48 -12 26 -34 61 -48 77 -30 36 -29 32 23 -71 23 -44 43 -100
47 -123 6 -48 11 -56 26 -46 8 4 8 12 1 25 -7 13 -6 20 2 22 8 3 8 9 0 24 -7
14 -7 25 0 35 8 11 9 10 4 -4 -5 -15 -2 -17 17 -12 39 12 42 11 45 -25 1 -19
10 -49 19 -67 15 -29 15 -33 0 -56 -15 -23 -15 -26 0 -31 12 -5 14 -15 9 -46
-5 -31 -3 -38 8 -34 7 3 19 17 26 32 12 26 12 26 27 7 8 -12 12 -31 9 -47 -3
-16 -1 -28 4 -28 6 0 10 5 10 11 0 6 5 9 12 7 11 -4 19 -88 8 -88 -4 0 -11 5
-17 11 -7 7 -21 7 -44 0 -29 -8 -31 -10 -14 -16 19 -6 65 -65 65 -84 0 -5 5
-22 12 -38 6 -15 11 -31 10 -36 -1 -4 3 -6 8 -5 9 3 25 -20 52 -74 10 -22 11
-77 0 -62 -4 6 -15 13 -24 17 -10 3 -18 15 -18 25 0 11 -7 25 -15 32 -8 7 -15
22 -15 35 0 30 -20 85 -31 85 -5 0 -5 -10 0 -22 24 -66 29 -156 10 -215 -8
-26 -7 -37 6 -55 l17 -23 -7 23 c-9 30 4 122 16 122 13 0 39 -63 39 -94 0 -29
49 -69 69 -57 9 6 4 16 -18 39 -17 17 -31 40 -31 51 0 27 7 26 35 -1 13 -13
34 -31 48 -40 23 -16 24 -21 16 -55 -13 -58 -11 -83 7 -83 8 0 12 5 9 10 -3 6
-1 10 6 10 8 0 8 4 -1 15 -10 12 -10 21 -1 41 13 29 15 64 2 64 -4 0 -6 11 -3
25 l5 26 22 -33 c29 -43 45 -100 45 -160 0 -26 5 -50 10 -53 12 -8 13 -65 1
-65 -4 0 -7 11 -6 25 2 13 -3 29 -10 35 -10 8 -14 3 -18 -22 -3 -18 -10 -52
-15 -75 -7 -31 -6 -49 4 -68 11 -22 11 -25 -3 -25 -9 0 -22 8 -29 18 -7 9 -14
12 -14 6 0 -16 30 -40 65 -51 17 -5 32 -18 34 -29 1 -10 9 -26 17 -35 29 -32
1 -26 -33 7 -38 39 -53 38 -35 -1 15 -32 15 -72 2 -80 -16 -10 -12 -35 6 -35
10 0 14 -5 10 -16 -3 -8 -2 -13 3 -10 5 3 12 -6 16 -21 3 -15 2 -29 -3 -31 -6
-2 -8 -12 -5 -22 3 -11 -2 -36 -11 -55 -17 -34 -16 -37 3 -69 12 -18 21 -40
21 -47 0 -20 -34 -39 -58 -33 -21 6 -49 54 -32 54 13 0 6 37 -20 107 -11 31
-19 62 -16 69 3 7 -7 17 -23 22 -22 8 -31 21 -46 71 -19 62 -30 75 -38 44 -3
-10 -3 1 0 25 5 38 3 42 -16 42 -11 0 -21 4 -21 9 0 5 -12 12 -27 16 -15 3
-38 18 -52 31 -21 21 -22 27 -11 34 9 6 20 4 30 -4 8 -8 25 -17 37 -20 13 -4
20 -13 17 -21 -4 -9 10 -20 40 -34 39 -17 46 -24 46 -47 0 -15 10 -38 22 -51
19 -20 20 -25 8 -33 -17 -11 -4 -40 21 -49 9 -3 8 1 -4 13 -16 16 -16 19 1 41
9 14 22 23 29 20 7 -2 10 2 7 10 -3 8 -15 13 -27 12 -13 -1 -22 4 -22 13 0 8
-4 34 -9 58 -6 32 -12 42 -27 42 -13 0 -18 -4 -13 -12 12 -19 -34 17 -54 43
-11 13 -29 43 -40 66 -18 35 -19 42 -7 47 21 8 19 21 -8 52 -18 20 -29 25 -45
20 -26 -9 -28 -21 -6 -30 12 -4 15 -2 10 9 -3 8 -2 15 1 15 10 0 43 -32 43
-41 0 -13 -43 -7 -86 12 -41 18 -42 18 -47 81 -3 35 -8 77 -12 93 -6 27 -5 28
6 10 7 -11 26 -33 41 -50 16 -16 31 -40 35 -53 4 -18 11 -22 27 -18 14 4 30
-4 52 -25 41 -40 65 -34 29 6 -14 17 -29 42 -32 58 -6 30 -23 47 -23 23 0 -9
-6 -16 -12 -16 -10 0 -9 -3 1 -9 9 -6 10 -11 2 -15 -14 -9 -25 18 -18 46 3 11
-1 34 -9 50 -8 16 -12 33 -9 38 4 6 -4 6 -20 0 -14 -5 -24 -6 -21 -1 3 5 0 22
-7 38 -10 24 -16 29 -32 22 -11 -4 -25 -8 -31 -8 -11 -1 -44 61 -44 85 0 8 -7
25 -16 39 -13 21 -13 24 0 32 14 8 16 11 16 36 0 6 16 -15 35 -48 28 -49 95
-125 111 -125 2 0 4 16 4 35 0 27 -9 45 -39 78 -21 23 -41 53 -42 66 -5 30
-26 39 -32 14 -3 -14 -8 -9 -20 19 -19 42 -22 68 -7 68 6 0 10 7 10 15 0 8 -6
12 -14 9 -7 -3 -25 9 -40 26 -28 34 -36 28 -10 -8 9 -13 14 -37 12 -60 l-3
-37 -35 50 c-19 27 -36 63 -38 80 -2 16 -4 39 -5 50 -3 28 -29 73 -34 58 -3
-7 1 -21 7 -32 8 -16 8 -19 -4 -15 -21 8 -66 124 -66 171 0 32 -3 41 -14 37
-8 -3 -17 0 -21 5 -3 6 -10 9 -15 6 -5 -3 -19 13 -31 35 -13 22 -26 40 -31 40
-17 0 -7 32 12 37 22 6 19 41 -11 111 -21 50 -28 53 -27 12 1 -46 -7 -45 -35
2 -27 47 -48 113 -39 122 3 4 -4 15 -16 26 -12 11 -24 33 -28 48 -11 52 -26
81 -45 87 -10 3 -21 15 -24 26 -4 11 -12 18 -18 16 -17 -5 -21 -48 -6 -58 10
-6 10 -10 0 -23 -17 -20 -34 -10 -28 16 3 11 3 17 0 14 -3 -3 -20 22 -37 56
-17 34 -41 68 -54 76 -20 13 -18 6 17 -59 58 -105 55 -123 -16 -97 -24 9 -32
17 -28 29 7 20 -12 66 -39 96 -18 21 -21 22 -37 7 -9 -8 -15 -23 -12 -35 3
-10 1 -19 -4 -19 -11 0 -51 29 -40 30 4 0 0 15 -10 33 -9 17 -18 38 -19 45 -1
8 -10 23 -20 33 -17 19 -17 21 8 42 21 19 25 30 23 66 -2 37 0 42 10 28 7 -9
16 -17 20 -17 14 0 -19 31 -49 47 -17 8 -42 25 -54 37 l-24 21 13 -30 c8 -16
16 -32 19 -35 27 -23 54 -90 31 -75 -5 3 -11 -5 -13 -17 -4 -30 -29 -34 -59
-8 -23 19 -23 21 -6 34 23 18 22 23 -12 40 -26 14 -30 14 -41 1 -10 -12 -7
-22 14 -50 19 -25 25 -41 20 -60 -5 -21 -3 -25 14 -25 12 0 24 -4 27 -10 4 -6
-5 -10 -19 -10 -14 0 -26 5 -26 10 0 6 -6 10 -13 10 -8 0 -13 10 -12 22 2 25
-31 88 -46 88 -17 0 -9 45 11 58 21 13 27 32 10 32 -5 0 -9 -5 -7 -12 1 -6
-11 -16 -28 -22 -16 -6 -31 -11 -33 -12 -1 -1 8 -23 22 -50 13 -27 27 -61 30
-76 5 -24 3 -28 -14 -28 -15 0 -27 13 -41 45 -11 25 -24 45 -30 45 -5 0 -23
-10 -39 -22 -22 -16 -43 -21 -88 -21 -78 1 -172 21 -179 39 -3 8 7 30 22 50
27 35 27 35 53 18 15 -10 34 -25 42 -34 8 -9 24 -14 35 -12 16 2 17 1 6 -7 -8
-5 -30 -7 -49 -4 -44 8 -36 -12 8 -21 23 -4 37 -1 52 14 16 15 25 17 35 9 13
-12 14 -10 17 43 1 9 4 20 9 24 13 13 7 24 -13 24 -11 0 -44 11 -73 24 -41 18
-58 21 -72 13 -10 -5 -39 -9 -63 -8 -42 1 -44 0 -38 -22 4 -16 0 -30 -12 -40
-15 -14 -21 -14 -44 -3 -23 12 -29 12 -47 -5 -12 -11 -21 -25 -22 -32 -1 -7
-2 -23 -2 -36 -2 -19 -10 -27 -37 -33 -19 -5 -40 -16 -47 -25 -13 -17 -43 -11
-43 9 0 29 18 41 49 35 27 -6 33 -3 41 18 5 14 19 35 30 47 11 12 20 26 20 30
0 5 5 6 10 3 11 -7 26 22 17 31 -11 11 -88 -8 -84 -19 5 -14 -23 -67 -35 -67
-4 0 -8 -7 -8 -15 0 -27 -18 -15 -22 15 -3 17 -1 30 3 30 4 0 11 9 14 20 3 11
13 20 22 20 11 0 13 3 5 13 -6 7 -29 11 -56 10 -25 -1 -46 2 -46 6 0 4 19 16
43 28 38 18 44 19 65 5 12 -8 22 -10 22 -4 0 6 -6 12 -12 15 -7 2 0 10 17 18
17 7 32 17 35 21 3 4 28 8 55 8 126 1 201 6 212 13 6 4 14 3 18 -3 12 -20 78
-40 111 -34 18 3 42 3 54 -1 17 -5 19 -9 9 -21 -10 -12 -8 -19 9 -35 22 -19
22 -19 22 0 0 11 -6 21 -12 24 -7 3 3 12 21 20 19 8 41 13 48 10 7 -3 13 -1
13 5 0 6 -5 12 -11 14 -8 3 -8 15 0 46 7 23 9 47 6 52 -3 5 4 14 15 20 12 6
20 7 20 1 0 -5 -6 -12 -12 -15 -9 -3 -8 -9 6 -20 10 -8 15 -20 11 -26 -4 -6 1
-18 11 -25 23 -18 43 -20 26 -3 -7 7 -12 18 -12 25 0 18 43 -27 58 -59 7 -18
19 -28 34 -29 37 -1 58 -7 73 -19 17 -14 20 -45 4 -34 -24 14 23 -57 51 -78
20 -15 30 -30 30 -48 0 -15 9 -37 20 -50 18 -21 20 -22 21 -4 0 10 2 38 4 61
2 31 0 40 -10 37 -7 -3 -16 3 -19 14 -4 11 -29 43 -56 70 -28 28 -50 54 -50
58 0 4 19 4 42 1 34 -5 50 -15 83 -51 22 -24 50 -47 62 -51 25 -7 76 -63 68
-75 -6 -10 15 -70 25 -70 5 0 11 9 15 19 3 11 12 22 20 25 18 6 20 27 3 24
-18 -4 -17 23 4 59 12 20 15 34 8 38 -5 3 -10 2 -10 -3 0 -5 -18 -12 -41 -16
-40 -6 -43 -5 -83 40 -24 27 -68 60 -108 80 -38 19 -68 39 -68 45 0 6 8 8 18
5 9 -3 34 -8 56 -12 l38 -6 -18 26 c-11 13 -29 30 -40 36 -26 14 -64 5 -64
-16 0 -8 -5 -14 -11 -14 -6 0 -8 -9 -4 -22 6 -18 4 -20 -11 -13 -11 4 -34 10
-52 13 -19 2 -31 9 -29 16 2 6 0 24 -4 39 -7 24 -6 27 5 17 8 -6 17 -22 20
-35 8 -32 31 -32 52 1 9 14 31 32 47 41 17 8 37 22 45 29 8 9 33 13 65 13 29
-1 42 -4 30 -6z m162 -11 c-5 -4 -16 -15 -23 -24 -11 -14 -11 -16 6 -12 19 6
50 -21 38 -33 -4 -4 -11 -2 -15 5 -4 8 -14 14 -22 15 -41 7 -51 33 -16 47 28
11 46 13 32 2z m191 -61 c-8 -12 -46 7 -46 22 0 4 5 5 12 1 8 -5 9 -1 4 12 -6
17 -5 17 15 -2 12 -12 18 -27 15 -33z m-1001 -2 c11 -16 2 -17 -25 -2 -24 12
-24 13 -3 13 12 0 25 -5 28 -11z m895 -20 c17 -13 18 -17 5 -10 -33 17 -51 31
-40 31 6 0 21 -10 35 -21z m-32 -29 c28 -17 45 -50 25 -50 -8 0 -103 61 -103
66 0 11 49 1 78 -16z m270 -5 c-6 -14 -15 -25 -20 -25 -5 0 -1 11 8 25 9 14
18 25 20 25 2 0 -2 -11 -8 -25z m-101 8 c-4 -3 1 -12 11 -19 15 -12 15 -15 2
-24 -11 -7 -3 -10 31 -10 31 0 55 -6 70 -19 l24 -19 -28 -11 c-38 -15 -52 -14
-66 3 -7 8 -23 17 -36 20 -36 9 -51 43 -29 67 9 10 19 19 22 19 3 0 2 -3 -1
-7z m-872 -25 c7 -8 4 -9 -8 -4 -10 3 -30 6 -43 6 -16 0 -23 4 -18 11 7 12 54
3 69 -13z m779 -3 c3 -8 1 -15 -4 -15 -6 0 -10 7 -10 15 0 8 2 15 4 15 2 0 6
-7 10 -15z m14 -85 c-2 -13 -13 -27 -27 -32 -20 -7 -23 -6 -18 11 3 11 0 22
-6 24 -6 2 -7 9 -3 16 5 7 14 10 22 7 8 -3 14 0 14 6 0 9 3 9 11 1 6 -6 9 -21
7 -33z m-1458 -11 c0 -5 -4 -9 -10 -9 -5 0 -10 7 -10 16 0 8 5 12 10 9 6 -3
10 -10 10 -16z m508 -28 c9 -5 25 -12 35 -15 9 -3 17 -10 17 -15 0 -13 -28 -3
-59 21 -25 19 -22 24 7 9z m1147 -1 c3 -5 1 -10 -4 -10 -6 0 -11 5 -11 10 0 6
2 10 4 10 3 0 8 -4 11 -10z m37 -37 c48 -52 87 -81 118 -87 43 -8 117 -74 126
-113 4 -15 22 -45 40 -67 18 -21 36 -52 39 -68 5 -23 11 -29 26 -25 10 3 19 2
19 -3 0 -11 -30 -21 -41 -14 -5 3 -9 -11 -9 -30 0 -22 -5 -36 -12 -37 -10 0
-10 -2 0 -6 17 -7 15 -33 -2 -33 -17 0 -40 64 -32 86 3 8 11 12 17 8 16 -9 -8
33 -43 78 -16 20 -27 40 -26 45 2 4 -10 39 -26 76 -23 55 -32 66 -47 62 -10
-3 -29 1 -43 10 -14 9 -30 14 -36 10 -11 -7 -97 83 -92 97 1 4 -2 8 -8 8 -5 0
-10 5 -10 10 0 16 24 12 42 -7z m-882 -13 c0 -5 -2 -10 -4 -10 -3 0 -8 5 -11
10 -3 6 -1 10 4 10 6 0 11 -4 11 -10z m827 -59 c-3 -11 -8 -7 -15 12 -7 16 -9
34 -5 40 8 13 25 -31 20 -52z m281 37 c20 -20 13 -28 -13 -16 -14 6 -25 15
-25 20 0 12 24 10 38 -4z m-1884 -14 c5 -14 4 -15 -9 -4 -17 14 -19 20 -6 20
5 0 12 -7 15 -16z m1244 -17 c5 -24 -15 -21 -21 4 -3 13 -1 19 6 16 7 -2 13
-11 15 -20z m-1207 -10 c-18 -22 -41 -96 -35 -112 4 -8 15 -15 25 -15 10 0 19
-4 19 -9 0 -13 -50 -51 -66 -51 -29 0 -37 55 -10 72 8 5 8 13 1 23 -19 30 -30
15 -30 -40 l0 -56 -45 7 c-25 3 -56 13 -69 21 -30 19 -101 28 -101 13 0 -7 8
-9 19 -5 13 4 30 -5 55 -28 40 -38 44 -47 20 -47 -29 0 -86 33 -97 57 -8 18
-13 20 -24 12 -20 -17 -16 -55 10 -72 12 -8 19 -18 16 -21 -4 -4 -14 0 -22 9
-9 8 -19 15 -23 15 -4 0 -16 7 -26 17 -17 15 -18 15 -18 -5 0 -11 -3 -28 -6
-37 -5 -13 -8 -14 -15 -3 -5 7 -9 22 -9 34 0 26 28 84 41 84 5 0 19 11 31 25
19 22 46 26 33 4 -4 -5 -1 -9 4 -9 16 0 13 16 -5 34 -14 15 -14 16 5 16 11 0
23 5 27 12 4 7 3 8 -4 4 -7 -4 -12 -2 -12 3 0 6 7 11 15 11 14 0 19 -12 16
-32 -2 -12 37 -10 60 2 11 6 19 21 19 35 0 14 5 25 10 25 6 0 10 -8 10 -19 0
-12 9 -20 27 -24 29 -5 63 7 63 23 0 5 7 7 15 4 8 -4 15 -1 15 5 0 12 34 29
59 30 10 1 11 -2 2 -12z m1924 -74 c37 -47 53 -78 63 -123 7 -33 19 -60 25
-60 30 -1 72 -94 55 -123 -5 -11 -5 -17 0 -17 6 0 12 -7 16 -15 4 -12 0 -14
-17 -10 -24 6 -77 -27 -77 -47 0 -7 5 -6 14 1 18 15 50 0 67 -31 11 -20 10
-21 -35 -15 -28 4 -46 3 -46 -3 0 -6 4 -10 8 -10 5 0 14 -11 20 -25 6 -14 8
-25 3 -25 -14 0 -29 23 -37 55 -4 17 -11 35 -16 41 -12 16 -17 84 -5 77 5 -3
7 -14 4 -24 -3 -12 0 -19 9 -19 8 0 14 7 14 15 0 8 5 15 10 15 15 0 12 22 -9
63 -18 36 -18 37 -1 37 11 0 21 4 25 10 8 12 -26 51 -38 43 -6 -3 -7 -1 -3 5
4 6 -9 31 -28 56 -19 25 -46 70 -60 101 -15 31 -31 53 -35 51 -4 -3 -18 6 -31
19 l-23 24 40 -2 c35 -1 44 -7 88 -64z m49 18 c-5 -6 -33 31 -33 44 -1 6 8 -1
19 -15 10 -14 17 -27 14 -29z m-226 -62 c6 -20 12 -47 12 -61 0 -31 17 -65 48
-96 12 -13 20 -27 17 -32 -9 -14 9 -12 23 2 18 18 26 3 33 -60 11 -83 20 -114
41 -136 10 -12 18 -35 18 -55 l0 -36 -25 40 c-26 42 -35 38 -10 -5 8 -14 14
-35 15 -47 0 -28 8 -29 36 -2 l22 20 22 -37 c22 -35 28 -53 51 -169 6 -27 17
-55 25 -62 9 -6 17 -17 18 -25 8 -43 19 -84 26 -93 33 -42 58 -106 58 -149 1
-27 5 -53 10 -58 11 -11 52 37 52 58 0 8 5 14 11 14 7 0 8 -7 4 -17 -23 -60
-28 -103 -17 -128 7 -15 8 -24 2 -20 -19 12 -10 -52 10 -70 22 -20 26 -55 10
-86 -17 -31 -27 -22 -40 34 -28 124 -66 240 -101 310 -18 34 -32 79 -33 99 -3
57 -20 66 -24 13 -2 -31 5 -61 23 -100 14 -31 25 -68 25 -83 0 -16 12 -42 30
-62 16 -19 29 -45 30 -58 0 -13 4 -31 9 -41 6 -10 6 -23 1 -31 -7 -12 -10 -11
-16 4 -4 10 -7 31 -8 47 -1 16 -5 29 -9 29 -5 0 -17 10 -28 23 -17 21 -17 19
2 -37 28 -83 13 -117 -25 -53 -53 89 -86 169 -76 185 5 10 10 13 10 7 0 -5 12
-23 26 -40 l25 -30 -16 40 c-9 21 -22 46 -30 55 -16 18 -36 120 -24 120 5 0 9
11 9 24 0 14 4 36 10 50 12 32 -4 35 -36 5 l-22 -20 -4 30 c-3 17 -1 31 2 31
13 0 -3 55 -19 67 -13 9 -14 16 -5 30 7 10 19 17 28 17 10 -1 16 6 16 21 0 37
-18 75 -36 75 -13 0 -15 -7 -10 -32 6 -39 -15 -77 -31 -56 -6 7 -13 37 -16 66
-5 47 -4 52 8 42 27 -23 17 13 -20 70 -53 82 -61 137 -14 94 18 -16 18 -14 -5
25 -20 36 -22 49 -14 70 9 24 5 31 -59 91 -78 73 -103 124 -102 206 l2 51 21
-22 c11 -12 27 -37 34 -56z m-2186 29 c-6 -6 -15 -8 -19 -3 -5 4 -2 10 5 12 6
3 9 10 6 16 -5 8 -2 8 7 0 10 -10 10 -16 1 -25z m1278 -17 c17 -43 5 -67 -48
-92 -26 -13 -69 -38 -96 -56 -26 -18 -52 -33 -57 -33 -5 0 -8 30 -8 66 1 40
-3 69 -10 74 -22 13 62 41 118 39 41 -2 55 1 63 14 13 24 24 21 38 -12z
m-1274 -38 c-3 -8 -6 -19 -6 -24 0 -5 -8 -1 -18 9 -12 11 -16 21 -10 29 13 16
41 4 34 -14z m-46 -23 c0 -5 -4 -10 -10 -10 -5 0 -10 5 -10 10 0 6 5 10 10 10
6 0 10 -4 10 -10z m330 -30 c0 -5 -5 -10 -11 -10 -5 0 -7 5 -4 10 3 6 8 10 11
10 2 0 4 -4 4 -10z m37 -13 c11 4 14 2 9 -5 -11 -18 -36 -14 -35 6 0 9 3 12 5
5 3 -7 12 -9 21 -6z m703 -2 c-7 -8 -22 -14 -34 -14 -20 1 -20 2 -1 6 11 3 24
9 30 14 15 14 19 10 5 -6z m-1086 -1 c9 -3 16 -10 16 -15 0 -14 -53 -5 -58 9
-4 13 17 16 42 6z m1736 -55 c6 -11 10 -30 9 -42 -2 -12 2 -32 9 -44 8 -14 9
-24 2 -28 -6 -4 -8 -12 -4 -18 3 -7 -6 1 -21 17 -18 20 -25 36 -21 51 3 12 3
25 -1 29 -4 3 -7 17 -8 31 -1 30 20 33 35 4z m638 -7 c2 -7 -3 -12 -10 -12 -8
0 -15 7 -15 15 0 18 19 15 25 -3z m-1287 -89 c9 -25 -10 -40 -59 -49 -35 -7
-40 -11 -57 -45 -13 -25 -14 -29 -1 -29 8 0 16 7 18 15 2 12 6 11 16 -6 8 -11
9 -18 3 -14 -6 3 -11 2 -11 -4 0 -23 21 -20 52 9 113 103 127 111 188 117 31
3 60 -2 94 -16 26 -12 57 -21 69 -21 58 -1 121 -46 203 -145 22 -27 60 -70 82
-95 23 -25 42 -49 42 -54 0 -4 12 -17 26 -29 23 -17 24 -21 10 -29 -19 -10
-21 -39 -5 -55 9 -9 7 -11 -8 -7 -11 3 -43 26 -72 51 -28 24 -48 38 -45 30 9
-23 -47 -30 -66 -8 -14 15 -20 16 -50 5 -19 -7 -46 -13 -60 -13 -14 -1 -47
-13 -75 -27 -27 -14 -59 -27 -70 -28 -11 0 -21 -9 -23 -19 -3 -16 2 -18 32
-16 19 2 38 0 42 -3 3 -4 22 -1 40 7 27 11 36 12 46 2 8 -9 28 -11 72 -6 34 5
109 8 168 8 123 -1 129 -4 178 -97 17 -31 42 -72 56 -91 19 -26 21 -36 12 -43
-7 -4 -9 -8 -3 -8 5 0 4 -5 -2 -11 -8 -8 -20 -5 -45 12 -18 13 -35 27 -38 30
-12 15 -121 70 -166 84 -72 22 -179 19 -234 -6 -59 -27 -150 -96 -150 -114 0
-8 -15 -25 -34 -37 -25 -16 -36 -33 -43 -65 -6 -23 -8 -44 -6 -47 2 -2 18 9
36 25 28 26 40 31 63 28 4 0 11 5 15 13 7 10 9 10 9 1 0 -7 7 -13 15 -13 8 0
15 5 15 11 0 5 5 7 10 4 6 -3 10 -1 10 6 0 7 3 9 6 6 10 -10 -16 -36 -55 -57
-52 -26 -101 -78 -94 -97 4 -10 2 -14 -5 -10 -28 18 -16 -77 16 -117 19 -24
20 -25 25 -6 3 11 1 18 -3 15 -5 -3 -11 -1 -15 5 -3 5 1 10 9 10 16 0 46 -26
46 -41 0 -5 12 -9 28 -9 15 -1 52 -9 82 -20 30 -11 69 -20 85 -20 17 0 52 -7
79 -15 60 -18 73 -11 20 11 -82 34 -124 53 -124 58 0 16 14 36 27 36 8 0 11 5
8 10 -8 12 17 9 26 -3 3 -5 9 -2 12 6 8 20 -6 29 -78 52 -33 10 -64 22 -69 27
-6 4 -21 8 -34 8 -13 0 -20 4 -17 10 3 6 22 10 42 10 26 0 33 3 27 13 -11 15
-11 38 -1 55 5 6 4 12 -1 12 -5 0 -9 7 -9 16 0 26 63 66 112 72 l46 5 -30 -32
c-50 -53 -49 -127 1 -168 40 -33 146 -18 187 25 23 26 25 61 6 117 -3 11 20
-8 52 -41 40 -43 68 -63 91 -68 l34 -6 -32 40 c-81 102 -193 168 -300 176 -14
1 -31 2 -39 3 -7 1 -11 7 -7 16 4 10 -1 15 -15 15 -15 0 -19 5 -16 15 4 8 2
17 -4 20 -5 4 -3 12 5 21 42 41 233 -11 320 -88 63 -54 156 -197 156 -237 0
-23 17 -49 75 -116 41 -48 75 -91 75 -96 0 -20 83 -145 110 -167 34 -27 70
-116 70 -172 0 -22 4 -40 9 -40 10 0 26 -65 22 -92 -1 -9 5 -51 13 -92 18 -84
20 -119 4 -66 l-11 35 -9 -27 c-6 -18 -14 -25 -24 -21 -8 3 -14 2 -13 -3 1 -5
-1 -22 -6 -38 -5 -18 -4 -36 4 -47 6 -10 11 -24 11 -29 0 -6 13 -28 30 -48 20
-25 29 -47 28 -69 -1 -27 -4 -31 -15 -21 -8 6 -12 17 -9 25 3 7 2 13 -2 13 -5
0 -18 18 -31 40 -32 57 -43 59 -16 3 13 -27 22 -49 20 -51 -6 -7 -45 24 -50
40 -3 9 -13 19 -21 22 -17 7 -13 -2 23 -50 13 -17 23 -34 23 -39 0 -4 11 -16
25 -27 26 -20 33 -38 14 -38 -5 0 -7 5 -4 10 3 6 1 10 -4 10 -6 0 -11 -10 -11
-21 0 -17 -5 -20 -21 -16 -20 5 -20 5 -3 -16 10 -12 25 -28 33 -34 13 -11 12
-15 -5 -28 -11 -8 -14 -14 -6 -15 12 0 10 -24 -4 -70 -4 -12 -6 -12 -14 0 -6
10 -13 5 -26 -23 -14 -28 -24 -37 -43 -37 -19 0 -22 -3 -12 -9 11 -7 7 -13
-15 -25 l-29 -17 35 7 35 6 -25 -28 c-35 -40 -43 -44 -56 -33 -13 11 -22 3
-71 -55 -32 -39 -5 -31 33 9 33 36 48 36 34 0 -14 -35 -57 -66 -99 -72 -33 -4
-45 -12 -61 -38 -20 -33 -55 -51 -66 -34 -3 5 -10 7 -15 4 -5 -4 -9 -2 -9 4 0
5 -17 27 -37 48 -20 21 -37 42 -37 47 -1 5 -9 10 -19 12 -37 5 -48 14 -47 36
6 70 -1 126 -16 132 -9 4 -12 2 -8 -5 6 -10 12 -139 7 -139 -1 0 -11 17 -22
37 -11 21 -20 34 -21 30 0 -4 7 -22 16 -39 17 -32 9 -47 -24 -48 -7 0 -10 -5
-7 -10 8 -13 -5 -13 -25 0 -15 9 -22 80 -7 80 4 0 7 -5 7 -12 0 -6 2 -9 6 -6
3 3 -3 20 -14 37 l-19 31 -12 -48 c-7 -26 -13 -55 -15 -64 -1 -10 -5 -21 -9
-24 -4 -4 -7 -18 -7 -31 0 -24 -9 -29 -25 -14 -6 5 -21 11 -35 13 -20 2 -26
10 -31 40 -3 21 -1 39 4 41 6 2 6 11 -2 24 -6 12 -8 29 -5 37 5 13 9 12 25 -7
14 -17 18 -18 19 -6 0 9 11 21 24 28 13 7 29 24 36 36 11 20 10 30 -8 65 -11
23 -18 48 -15 56 2 7 -11 46 -31 86 -20 39 -34 78 -32 84 3 8 -1 11 -10 7 -8
-3 -14 1 -14 11 0 26 -2 30 -19 43 -9 6 -13 15 -8 19 4 4 7 2 7 -4 0 -7 4 -12
8 -12 12 0 11 32 -1 48 -5 7 -7 15 -4 18 8 8 29 -35 22 -46 -3 -5 1 -12 9 -17
14 -8 66 -102 66 -120 0 -6 9 -18 20 -28 22 -20 26 -15 11 13 -6 9 -28 55 -51
102 -45 92 -98 181 -115 192 -6 5 -6 8 3 8 6 0 12 9 12 20 0 11 -4 20 -10 20
-5 0 -16 12 -24 28 -14 26 -76 97 -76 86 0 -3 -5 -2 -11 2 -8 4 -7 9 2 15 8 4
19 3 28 -4 12 -10 12 -9 0 11 -8 12 -16 17 -17 12 -3 -7 -13 -5 -29 5 -13 9
-31 14 -39 11 -8 -3 -14 0 -14 6 0 6 -2 9 -4 7 -9 -9 40 -136 72 -186 18 -28
42 -77 53 -109 11 -32 27 -71 35 -86 13 -25 13 -27 -3 -22 -10 3 -2 -9 17 -28
38 -35 60 -76 60 -110 0 -16 -9 -10 -40 28 -22 27 -40 53 -40 59 0 18 -38 91
-54 105 -9 7 -16 8 -16 2 0 -5 6 -15 13 -21 21 -17 41 -91 28 -104 -7 -7 -5
-15 7 -24 15 -13 15 -13 -5 -4 -12 6 -31 23 -42 37 -14 18 -21 22 -21 11 0 -8
12 -30 26 -47 15 -17 24 -33 22 -36 -11 -10 -57 39 -69 74 -7 20 -14 31 -16
24 -3 -6 -10 -9 -16 -5 -7 4 -8 0 -3 -13 18 -43 24 -74 16 -74 -5 0 -7 -7 -3
-16 3 -9 -3 -23 -15 -34 -21 -19 -21 -19 -27 2 -6 16 -9 18 -16 7 -10 -17 -28
4 -63 78 -14 28 -31 55 -39 60 -8 4 -22 24 -32 43 -27 54 -36 63 -48 48 -6 -9
-7 -8 -3 5 3 9 1 28 -5 41 -11 23 -13 23 -42 11 -29 -12 -36 -11 -74 12 -40
23 -43 23 -44 6 -1 -10 -1 -21 0 -25 2 -12 -17 -10 -24 2 -3 6 -1 10 4 10 16
0 13 42 -4 64 -14 18 -15 15 -12 -35 2 -51 4 -54 30 -57 27 -3 40 -32 14 -32
-38 0 -90 81 -71 111 4 8 3 9 -4 5 -15 -9 -15 -3 0 28 9 21 8 29 -4 43 -8 10
-18 28 -21 41 -5 20 -3 21 9 11 12 -10 15 -10 12 2 -6 27 78 23 137 -5 58 -29
116 -34 134 -12 10 12 8 18 -11 30 -35 23 -117 38 -168 31 -60 -8 -181 -43
-153 -44 12 -1 24 -5 28 -10 3 -6 -5 -8 -17 -6 -21 4 -22 3 -5 -9 24 -19 22
-22 -27 -41 -40 -16 -46 -16 -75 -1 -27 14 -30 20 -21 37 10 17 7 21 -22 34
-18 8 -29 14 -24 15 6 0 0 9 -12 20 -12 12 -22 25 -22 30 0 5 -20 21 -43 35
-43 25 -73 33 -63 17 3 -5 -8 -9 -24 -10 -16 0 -31 6 -34 14 -3 8 -10 14 -15
14 -10 0 24 -109 40 -124 12 -13 12 -29 -1 -21 -12 7 -38 -6 -40 -20 0 -5 -17
-16 -36 -22 -33 -12 -38 -11 -54 10 -23 28 -19 66 14 141 24 53 28 57 43 45
16 -12 17 -12 7 1 -31 41 -24 100 18 162 10 15 25 44 32 65 11 33 11 41 -8 73
-11 19 -25 38 -31 42 -6 5 -6 8 2 8 7 0 23 -12 37 -27 19 -20 22 -29 13 -35
-7 -4 -7 -8 -1 -8 5 0 16 6 23 13 11 10 13 10 7 0 -4 -7 -3 -13 1 -13 5 0 15
6 22 13 10 10 11 9 6 -5 -4 -10 -13 -18 -20 -18 -8 0 -17 -5 -21 -12 -4 -7 -3
-8 5 -4 8 5 10 1 7 -16 -7 -32 -16 -138 -11 -138 7 0 58 172 58 197 0 15 8 41
18 59 9 18 16 34 13 37 -2 2 2 10 11 17 8 7 15 20 15 28 0 12 -4 10 -16 -7
-11 -15 -23 -21 -36 -18 -14 4 -18 2 -14 -9 4 -10 -2 -14 -17 -14 -13 0 -33
-9 -44 -19 -20 -19 -22 -19 -36 -3 -13 15 -14 20 -1 36 25 35 66 56 86 45 12
-7 18 -6 18 2 0 6 7 9 14 6 10 -4 13 -1 9 8 -3 8 -10 12 -16 8 -6 -3 -7 -1 -3
5 4 6 14 8 23 5 12 -5 15 -2 10 10 -3 8 -2 17 2 19 9 4 81 115 81 126 0 5 8
17 18 28 71 77 86 133 57 219 -9 25 -17 60 -19 79 -2 33 -2 34 21 19 23 -15
23 -15 11 18 -6 19 -20 41 -30 50 -10 9 -18 23 -18 32 0 9 -4 19 -10 22 -5 3
-10 1 -10 -5 0 -7 -5 -6 -14 2 -8 7 -12 16 -9 21 2 4 0 7 -5 7 -6 0 -24 12
-40 27 -17 14 -43 27 -59 29 -15 1 -22 0 -15 -3 6 -2 12 -10 12 -16 0 -6 -13
2 -29 17 -16 16 -34 25 -39 22 -5 -3 -17 5 -26 19 -15 23 -45 37 -31 15 3 -5
-1 -10 -10 -10 -8 0 -18 -6 -21 -14 -4 -11 -11 -11 -42 -1 -20 7 -39 9 -42 4
-3 -4 -15 -6 -27 -3 -33 9 -21 37 23 54 21 8 44 18 49 22 52 42 171 109 178
101 4 -3 14 0 24 8 9 8 14 9 10 3 -4 -7 0 -15 9 -18 18 -7 99 67 90 82 -9 15
37 49 76 56 21 4 67 21 103 38 39 18 75 28 90 26 13 -3 22 -1 19 3 -7 12 7 11
26 -1 8 -5 19 -5 25 -1 16 14 47 19 94 18 35 -2 45 -6 52 -24z m-527 -158 c-4
-9 -16 -21 -28 -27 -19 -10 -19 -9 3 16 28 30 33 32 25 11z m2024 -43 c2 -19
7 -43 12 -53 13 -24 14 -24 -20 -26 -36 -3 -44 9 -45 68 0 42 2 46 26 46 22 0
25 -5 27 -35z m-2705 -73 c-30 -12 -33 -10 -33 23 l0 31 25 -23 c24 -22 24
-25 8 -31z m47 -36 c0 -26 -1 -26 -15 -7 -19 25 -19 34 0 34 10 0 15 -10 15
-27z m-101 -19 c20 -45 -11 -61 -45 -23 -14 16 -15 23 -6 26 6 3 12 11 12 19
0 21 26 6 39 -22z m2765 -29 c6 -28 5 -29 -8 -12 -8 11 -12 25 -9 33 7 18 9
16 17 -21z m120 20 c3 -8 1 -15 -4 -15 -6 0 -10 7 -10 15 0 8 2 15 4 15 2 0 6
-7 10 -15z m-2529 -5 c3 -6 -3 -10 -14 -10 -12 0 -21 -4 -21 -8 0 -5 -13 -7
-30 -4 -27 4 -37 12 -26 23 10 9 85 8 91 -1z m2484 -57 c-1 -21 3 -48 10 -60
10 -19 9 -23 -3 -23 -20 0 -25 19 -19 73 7 56 16 63 12 10z m-2476 20 c-7 -2
-19 -2 -25 0 -7 3 -2 5 12 5 14 0 19 -2 13 -5z m-147 -22 c-11 -12 -15 -27
-11 -42 5 -22 12 -24 73 -27 84 -3 105 -10 98 -28 -3 -9 -1 -12 4 -9 6 3 10 2
10 -4 0 -5 -5 -13 -11 -16 -6 -4 -8 -13 -5 -21 4 -10 -4 -14 -28 -14 -56 0
-123 -80 -105 -125 4 -11 8 -48 8 -82 1 -50 4 -63 17 -63 8 0 12 5 9 10 -4 6
-3 10 2 9 4 -1 15 -1 23 0 13 1 13 2 0 11 -8 5 -10 10 -4 10 7 0 14 9 17 20 3
11 12 20 20 20 12 0 12 -6 -4 -37 -10 -20 -24 -41 -31 -46 -9 -6 -8 -7 4 -4
10 4 29 -6 48 -24 17 -17 34 -28 38 -25 3 4 0 12 -6 18 -22 22 -13 67 21 104
28 31 41 37 86 42 l53 5 -32 -44 c-27 -37 -31 -50 -27 -84 4 -25 14 -47 29
-59 19 -16 19 -18 4 -12 -12 4 -23 2 -27 -6 -6 -10 -17 -10 -49 -2 -32 9 -38
9 -30 -1 12 -14 58 -29 78 -26 6 1 12 -2 12 -6 -1 -21 -20 -35 -53 -38 -19 -2
-45 -9 -57 -15 -12 -6 -35 -8 -53 -5 -25 6 -30 5 -20 -5 9 -10 6 -20 -14 -46
-23 -31 -24 -34 -6 -34 10 0 24 5 31 12 9 9 12 5 12 -20 0 -26 4 -32 18 -30
12 2 17 -3 16 -19 0 -13 3 -23 8 -23 4 0 8 -7 8 -16 0 -11 -6 -14 -22 -9 -16
4 -19 3 -9 -3 9 -6 10 -12 3 -16 -6 -4 -9 -14 -6 -24 5 -14 3 -14 -10 2 -14
17 -16 18 -16 3 0 -11 -5 -14 -16 -10 -25 9 -2 -28 40 -65 22 -19 30 -33 23
-36 -9 -3 -8 -8 3 -16 12 -9 11 -10 -7 -5 -18 5 -23 2 -23 -12 0 -13 -3 -14
-8 -5 -9 13 -46 12 -59 -3 -5 -4 2 -5 15 -2 29 7 49 -25 26 -44 -8 -7 -13 -18
-10 -26 6 -14 -40 -50 -51 -40 -3 4 -17 -3 -31 -13 -26 -21 -47 -27 -37 -10 3
5 -5 16 -19 25 -24 16 -48 53 -25 39 8 -4 9 1 4 15 -5 16 -2 21 12 21 15 0 15
2 3 9 -20 14 -28 5 -36 -37 -6 -30 -8 -33 -14 -17 -4 11 -4 27 0 35 8 15 13
55 25 190 4 41 18 119 31 172 28 112 29 162 9 353 -20 183 -20 251 0 259 8 3
15 10 15 16 0 6 -5 8 -12 4 -6 -4 -9 -3 -7 2 3 5 11 21 19 37 7 15 18 27 23
27 6 0 2 -8 -7 -19z m395 -8 c13 -16 12 -17 -3 -4 -17 13 -22 21 -14 21 2 0
10 -8 17 -17z m2292 -48 c1 -5 6 -13 10 -16 20 -15 35 -139 17 -139 -14 0 -40
67 -39 99 0 14 3 20 6 14 2 -7 9 -13 15 -13 6 0 3 11 -6 25 -9 14 -14 25 -10
25 3 0 -1 11 -10 25 -9 13 -16 30 -16 37 0 13 30 -38 33 -57z m37 55 c0 -5 -2
-10 -4 -10 -3 0 -8 5 -11 10 -3 6 -1 10 4 10 6 0 11 -4 11 -10z m-152 -47 c6
-26 9 -50 6 -52 -11 -11 -33 27 -37 62 -6 56 19 48 31 -10z m-768 3 c0 -3 -4
-8 -10 -11 -5 -3 -10 -1 -10 4 0 6 5 11 10 11 6 0 10 -2 10 -4z m157 -18 c-3
-8 -6 -5 -6 6 -1 11 2 17 5 13 3 -3 4 -12 1 -19z m-1603 -174 c33 -28 53 -60
43 -70 -3 -3 -24 4 -48 17 -36 18 -53 21 -106 16 -35 -4 -72 -11 -83 -17 -39
-21 -43 -4 -10 34 42 48 63 57 122 52 34 -2 57 -11 82 -32z m2396 -15 c0 -5
-6 -9 -14 -9 -15 0 -28 24 -19 34 7 7 33 -13 33 -25z m-692 -108 c52 -23 94
-65 90 -92 -4 -22 -5 -23 -13 -4 -13 33 -46 64 -61 58 -22 -8 -54 26 -53 56 1
15 3 19 6 9 2 -9 16 -21 31 -27z m702 -17 c0 -41 -2 -45 -22 -42 -12 2 -23 8
-25 13 -3 10 33 75 42 75 3 0 5 -21 5 -46z m-1144 -59 c-4 -13 -2 -13 14 -5
27 14 30 13 30 -15 0 -29 -21 -33 -44 -9 -17 17 -20 27 -9 37 11 12 15 8 9 -8z
m1163 -25 c-6 -16 -15 -30 -19 -30 -5 0 -4 14 1 30 6 17 15 30 19 30 5 0 4
-13 -1 -30z m-13 -187 c18 -25 17 -63 -3 -85 -21 -24 -48 -24 -38 0 4 9 10 36
12 60 6 47 10 50 29 25z m-3140 -95 c-3 -18 -6 -73 -8 -121 -1 -48 -6 -91 -11
-94 -5 -3 -3 -9 4 -14 10 -6 11 -9 2 -9 -8 0 -13 -14 -13 -34 0 -19 -5 -38
-11 -42 -8 -4 -7 -9 2 -16 11 -8 11 -9 -1 -5 -8 2 -23 0 -32 -4 -15 -8 -16 -5
-8 22 5 18 7 35 5 40 -3 4 -1 10 4 14 6 3 8 30 5 60 -4 38 -1 68 11 98 9 23
14 55 11 69 -4 27 17 68 36 68 6 0 8 -13 4 -32z m589 -37 c-3 -6 -11 -11 -16
-11 -5 0 -4 6 3 14 14 16 24 13 13 -3z m2622 -33 c-8 -68 -17 -99 -28 -92 -12
7 -11 75 2 113 17 50 32 38 26 -21z m-2647 -12 c0 -3 -4 -8 -10 -11 -5 -3 -10
-1 -10 4 0 6 5 11 10 11 6 0 10 -2 10 -4z m0 -81 c-7 -8 -17 -15 -23 -15 -5 0
-2 9 8 20 21 23 35 19 15 -5z m93 10 c-3 -9 -8 -14 -10 -11 -3 3 -2 9 2 15 9
16 15 13 8 -4z m-616 -62 c20 -49 20 -167 0 -188 -11 -10 -14 -28 -12 -55 3
-22 0 -40 -5 -40 -23 0 -30 43 -23 167 3 70 6 136 7 145 1 24 16 11 33 -29z
m557 31 c3 -8 2 -12 -4 -9 -6 3 -10 10 -10 16 0 14 7 11 14 -7z m-527 -31 c1
-24 0 -25 -6 -8 -7 17 -6 35 2 35 2 0 3 -12 4 -27z m3023 -11 c0 -26 -11 -34
-26 -21 -10 8 -11 14 -1 24 17 20 27 18 27 -3z m-3175 -20 c-3 -3 -11 0 -18 7
-9 10 -8 11 6 5 10 -3 15 -9 12 -12z m2825 -20 c0 -15 -2 -15 -10 -2 -13 20
-13 33 0 25 6 -3 10 -14 10 -23z m340 -11 c15 -29 12 -41 -9 -41 -24 0 -37 30
-13 31 10 0 12 3 5 6 -15 6 -17 23 -3 23 5 0 14 -9 20 -19z m47 -53 c-3 -7 -5
-2 -5 12 0 14 2 19 5 13 2 -7 2 -19 0 -25z m-57 -8 c0 -5 -4 -10 -10 -10 -5 0
-10 5 -10 10 0 6 5 10 10 10 6 0 10 -4 10 -10z m74 -25 c-4 -8 -8 -15 -10 -15
-2 0 -4 7 -4 15 0 8 4 15 10 15 5 0 7 -7 4 -15z m-3064 -15 c0 -5 -2 -10 -4
-10 -3 0 -8 5 -11 10 -3 6 -1 10 4 10 6 0 11 -4 11 -10z m204 2 c-15 -10 -10
-198 6 -237 7 -16 12 -47 11 -67 -1 -21 2 -38 6 -38 17 0 35 18 29 29 -4 6 -1
11 8 11 15 0 14 -27 -3 -72 -13 -34 -13 -36 4 -68 17 -34 20 -70 4 -70 -5 0
-7 -4 -4 -10 3 -5 2 -10 -3 -10 -6 0 -8 -10 -5 -22 3 -18 1 -17 -13 7 -9 16
-19 48 -21 70 -6 68 -11 98 -27 165 -9 36 -18 108 -20 161 -2 53 -6 102 -10
108 -9 14 15 51 34 51 10 0 11 -3 4 -8z m-59 -52 c3 -5 1 -10 -4 -10 -6 0 -11
5 -11 10 0 6 2 10 4 10 3 0 8 -4 11 -10z m-256 -50 c4 0 24 -14 44 -31 35 -30
47 -61 29 -73 -18 -11 -93 89 -91 121 1 17 2 17 6 1 2 -10 8 -18 12 -18z m253
3 c-6 -2 -10 -9 -6 -14 7 -12 -18 -11 -36 2 -13 9 -12 10 2 5 10 -3 20 -1 23
4 4 6 12 10 18 9 9 0 8 -2 -1 -6z m-252 -72 c15 -29 13 -31 -25 -31 -19 0 -35
4 -35 9 0 5 -3 16 -6 25 -10 25 52 22 66 -3z m254 -3 c23 -33 4 -44 -35 -22
-44 26 -48 44 -10 44 19 0 35 -8 45 -22z m-114 -47 c0 -5 -13 -9 -30 -9 -16 1
-30 5 -30 10 0 4 14 8 30 8 17 0 30 -4 30 -9z m-805 -91 c3 -5 1 -10 -4 -10
-6 0 -11 5 -11 10 0 6 2 10 4 10 3 0 8 -4 11 -10z m1492 4 c-3 -3 -12 -4 -19
-1 -8 3 -5 6 6 6 11 1 17 -2 13 -5z m1877 -36 c-3 -4 0 -17 6 -28 9 -16 8 -20
-4 -20 -23 0 -42 40 -25 51 11 7 10 9 -4 9 -15 0 -16 2 -5 14 11 11 15 11 24
-3 7 -9 10 -19 8 -23z m-1847 -20 c-2 -7 4 -18 14 -23 13 -7 15 -15 9 -25 -7
-11 -12 -9 -29 11 -25 29 -27 49 -5 49 9 0 14 -6 11 -12z m-1493 -4 c9 -3 13
-10 10 -15 -8 -14 -21 -11 -28 6 -6 17 -4 18 18 9z m1768 -16 c-3 -14 -2 -19
6 -14 17 10 15 -3 -3 -20 -13 -14 -15 -12 -15 14 0 24 7 42 16 42 1 0 0 -10
-4 -22z m1824 -29 c14 -28 21 -48 16 -45 -6 3 -12 0 -15 -6 -8 -23 -44 24 -50
65 -8 55 17 48 49 -14z m-1637 -42 c19 -29 21 -30 21 -9 0 12 4 22 9 22 13 0
71 -72 71 -88 0 -7 4 -11 9 -7 5 3 12 -4 16 -14 4 -12 12 -18 21 -14 7 3 14 0
14 -6 0 -16 -30 -13 -36 4 -4 8 -10 12 -15 9 -5 -3 -9 -1 -9 4 0 6 -7 12 -14
15 -11 4 -13 1 -9 -11 5 -12 -1 -10 -20 7 -15 14 -30 21 -34 18 -3 -4 -15 1
-26 10 -19 17 -20 17 -14 1 4 -10 2 -18 -3 -18 -13 0 -25 23 -22 43 2 10 -6
35 -17 56 l-19 39 28 -14 c16 -8 38 -29 49 -47z m1391 43 c0 -5 -2 -10 -4 -10
-3 0 -8 5 -11 10 -3 6 -1 10 4 10 6 0 11 -4 11 -10z m-1513 -32 c43 -25 42
-27 -10 -68 -17 -12 -18 -12 -15 6 2 13 -2 18 -14 16 -14 -2 -18 4 -18 33 0
41 5 42 57 13z m-562 -18 c-4 -11 -2 -20 4 -20 6 0 11 5 11 10 0 6 4 10 8 10
5 0 9 -6 9 -14 0 -9 -9 -13 -24 -11 -30 3 -37 10 -30 30 9 23 29 19 22 -5z
m175 0 c0 -5 -8 -10 -17 -10 -15 0 -16 2 -3 10 19 12 20 12 20 0z m104 -15
c-4 -8 -8 -15 -10 -15 -2 0 -4 7 -4 15 0 8 4 15 10 15 5 0 7 -7 4 -15z m2117
-22 c13 -16 12 -17 -3 -4 -10 7 -18 15 -18 17 0 8 8 3 21 -13z m-2727 -10 c9
-31 25 -136 28 -178 1 -22 8 -46 15 -53 7 -7 13 -23 13 -35 0 -12 9 -41 19
-63 10 -23 16 -46 12 -51 -3 -6 -112 -18 -241 -27 -129 -9 -255 -18 -280 -21
-25 -2 -88 -7 -140 -11 l-95 -6 2 162 c1 90 4 164 6 166 2 2 18 7 35 10 27 6
32 4 32 -13 0 -11 11 -29 25 -41 14 -12 25 -17 25 -12 0 6 8 10 18 10 14 0 15
-2 2 -10 -13 -8 -12 -10 3 -10 9 0 17 5 17 11 0 6 7 9 15 5 11 -4 15 1 15 19
0 31 17 75 29 75 6 0 10 -26 10 -57 0 -32 2 -67 4 -78 3 -11 8 -48 12 -83 12
-108 25 -80 25 56 0 103 3 132 15 142 12 10 15 10 15 -4 0 -9 3 -17 8 -17 44
-7 62 -6 62 3 0 7 5 6 15 -2 8 -7 21 -10 28 -7 7 3 19 -3 25 -14 7 -11 18 -16
28 -12 11 4 12 9 5 16 -7 7 -7 15 0 24 14 16 51 17 66 2 9 -9 14 -5 19 17 5
18 3 29 -4 32 -7 2 -12 14 -12 26 0 19 8 25 43 33 63 16 75 15 81 -4z m493 6
c8 -8 17 -8 32 1 20 10 21 10 9 -9 -13 -22 -38 -29 -38 -11 0 6 -4 10 -9 10
-6 0 -9 -9 -8 -19 0 -11 6 -17 14 -14 7 3 13 0 13 -6 0 -16 -46 -13 -60 4 -6
8 -9 19 -5 25 4 6 3 10 -2 9 -20 -3 -27 2 -13 11 20 13 53 13 67 -1z m-134
-16 c-5 -12 -2 -15 9 -11 8 4 15 1 15 -6 0 -8 -9 -11 -24 -8 -26 5 -42 22 -21
22 9 0 9 3 -2 10 -12 8 -11 10 7 10 17 0 21 -4 16 -17z m1144 -5 c-3 -8 -6 -5
-6 6 -1 11 2 17 5 13 3 -3 4 -12 1 -19z m-680 -20 c-3 -8 -6 -5 -6 6 -1 11 2
17 5 13 3 -3 4 -12 1 -19z m271 -28 c12 0 37 -39 29 -47 -3 -2 11 -20 31 -38
25 -23 39 -30 44 -22 6 9 8 9 8 0 0 -7 6 -13 13 -13 7 0 18 -9 24 -19 11 -17
9 -21 -15 -29 -29 -10 -34 -9 -97 8 -22 6 -51 14 -65 17 -63 13 -151 46 -147
56 3 11 21 22 50 31 9 3 23 18 30 33 6 15 19 36 27 45 13 17 15 17 35 -2 12
-11 26 -20 33 -20z m-196 -11 c4 -19 5 -41 2 -51 -6 -20 -33 -31 -48 -19 -6 5
-31 12 -56 16 -69 10 -80 15 -80 34 0 39 21 41 81 9 32 -18 61 -30 63 -27 3 3
6 22 8 42 3 45 20 43 30 -4z m55 21 c13 0 13 -3 2 -16 -12 -14 -14 -14 -20 3
-4 10 -8 23 -8 28 1 6 3 4 6 -2 2 -7 12 -13 20 -13z m-1178 -31 c-19 -11 -24
-3 -8 14 8 9 16 11 18 5 2 -6 -3 -14 -10 -19z m585 -11 c-2 -18 -9 -37 -16
-43 -8 -7 -9 -6 -3 4 5 8 8 29 7 48 -1 19 2 31 7 29 5 -3 7 -20 5 -38z m198
30 c-17 -8 -26 -8 -34 0 -9 9 -4 12 23 11 32 0 33 -1 11 -11z m278 -4 c0 -8
-4 -12 -10 -9 -5 3 -10 10 -10 16 0 5 5 9 10 9 6 0 10 -7 10 -16z m-325 -4 c3
-5 1 -10 -4 -10 -6 0 -11 5 -11 10 0 6 2 10 4 10 3 0 8 -4 11 -10z m-445 -4
c0 -3 -4 -8 -10 -11 -5 -3 -10 -1 -10 4 0 6 5 11 10 11 6 0 10 -2 10 -4z
m-274 -41 c1 -14 -2 -22 -7 -19 -11 6 -12 44 -1 44 4 0 8 -11 8 -25z m2612 0
c-3 -3 -9 2 -12 12 -6 14 -5 15 5 6 7 -7 10 -15 7 -18z m-1967 -39 c24 -2 48
-13 70 -34 19 -18 39 -32 44 -31 6 0 4 3 -2 6 -7 2 -13 9 -13 15 0 6 9 3 19
-6 11 -10 24 -15 29 -12 6 3 13 -1 16 -9 4 -12 10 -14 25 -5 22 11 75 -6 65
-21 -3 -5 2 -6 10 -3 11 4 16 0 17 -12 1 -18 1 -18 6 -1 4 15 11 18 36 13 85
-16 122 -18 175 -6 50 10 65 10 107 -4 79 -27 128 -30 198 -11 59 16 66 16 95
1 33 -17 84 -93 82 -123 -1 -10 -2 -33 -2 -50 0 -18 -5 -33 -9 -33 -5 0 -6
-15 -2 -32 l6 -33 -29 19 c-16 10 -24 13 -17 6 18 -20 5 -42 -18 -29 -26 13
-24 4 9 -45 l28 -42 -45 0 c-31 -1 -50 4 -59 15 -11 14 -12 13 -10 -9 2 -20 8
-25 29 -22 25 2 45 -11 49 -33 3 -13 10 -36 18 -55 3 -8 6 -19 6 -23 1 -4 8
-12 16 -17 8 -5 12 -12 9 -15 -9 -8 -59 15 -88 39 -28 25 -22 10 27 -57 19
-26 32 -50 30 -53 -8 -8 -83 67 -80 79 2 7 0 9 -4 4 -4 -4 -30 14 -57 40 -47
45 -54 44 -18 -2 9 -11 1 -7 -17 9 -25 23 -32 26 -32 13 0 -9 -7 -17 -15 -17
-8 0 -15 -4 -15 -10 0 -6 9 -6 25 0 16 6 27 6 31 -2 4 -7 3 -8 -4 -4 -7 4 -12
1 -12 -8 0 -19 -31 -21 -49 -3 -11 10 -12 9 -7 -1 6 -9 1 -11 -18 -8 -14 3
-26 0 -26 -5 0 -6 -4 -7 -10 -4 -5 3 -15 3 -20 0 -6 -4 5 -22 25 -43 19 -20
35 -40 35 -44 0 -12 -18 -10 -25 2 -5 7 -11 8 -19 1 -8 -7 -17 1 -29 30 -10
22 -16 43 -13 47 2 4 -18 7 -45 8 -27 0 -49 -3 -49 -8 0 -4 5 -8 12 -8 6 0 8
-3 5 -6 -4 -4 -17 0 -30 9 -23 15 -25 15 -37 -11 -7 -16 -15 -22 -17 -14 -3 6
-8 12 -12 12 -14 0 -51 -37 -44 -44 10 -10 23 -7 20 5 -1 6 4 14 11 16 23 9 7
-22 -22 -41 -28 -19 -29 -19 -42 0 -8 10 -24 30 -36 43 -13 14 -18 22 -11 18
6 -4 14 -3 18 3 3 5 0 10 -7 10 -8 0 -9 3 -2 8 16 11 33 64 30 92 -2 14 -1 30
3 35 3 6 7 27 7 49 2 46 15 56 63 50 20 -2 30 -1 23 2 -10 5 -9 10 5 21 17 13
17 14 1 9 -10 -3 -25 -9 -33 -12 -8 -3 -15 -1 -15 5 0 6 13 14 30 17 16 4 35
13 41 20 12 15 29 10 29 -8 0 -5 -7 -7 -16 -4 -11 4 -8 -3 8 -23 25 -32 44
-41 34 -15 -3 9 -2 12 5 9 17 -11 39 16 38 49 0 25 -2 27 -8 12 -7 -19 -8 -19
-13 2 -4 13 -2 22 5 22 7 0 5 7 -4 15 -12 12 -21 14 -43 5 -22 -8 -35 -6 -66
10 -43 22 -65 26 -55 10 3 -5 1 -18 -5 -27 -6 -10 -10 -12 -8 -4 4 13 -43 71
-59 73 -4 1 -13 8 -19 16 -9 13 -12 13 -17 -2 -7 -18 -37 -22 -37 -4 0 6 -3 9
-6 5 -4 -3 -3 -14 1 -24 13 -29 14 -43 4 -49 -5 -3 -9 4 -9 16 0 12 -4 18 -10
15 -10 -6 -14 13 -11 55 l1 25 -20 -25 c-11 -14 -20 -36 -20 -50 0 -19 -2 -22
-9 -10 -6 8 -7 18 -5 22 3 4 -2 8 -10 8 -8 0 -19 -8 -25 -17 -13 -24 -21 -13
-10 15 5 12 15 22 23 22 17 0 30 30 18 42 -5 5 -21 4 -38 -3 -16 -7 -38 -12
-49 -11 -16 1 -17 0 -2 -4 20 -6 20 -8 7 -32 -6 -9 -17 -44 -24 -77 -8 -33
-15 -52 -15 -42 -1 9 -8 17 -17 17 -15 0 -15 -3 1 -27 17 -25 17 -27 -5 -43
-19 -14 -21 -20 -11 -38 10 -19 9 -22 -7 -22 -10 0 -27 7 -38 16 -10 8 -13 12
-5 8 9 -5 12 -3 7 4 -4 7 -16 12 -27 12 -18 0 -23 10 -20 38 1 6 -3 12 -8 12
-5 0 -9 15 -9 33 0 17 -1 93 -2 167 -1 74 -1 143 -1 152 1 14 9 16 54 12 28
-2 68 -6 88 -8z m1049 4 c0 -5 -7 -7 -15 -4 -8 4 -15 8 -15 10 0 2 7 4 15 4 8
0 15 -4 15 -10z m11 -19 c7 11 9 11 9 -3 0 -10 -5 -18 -11 -18 -5 0 -7 -6 -3
-12 4 -7 -3 -3 -15 9 -24 26 -28 42 -5 22 13 -10 17 -10 25 2z m-596 -11 c3
-6 -1 -7 -9 -4 -18 7 -21 14 -7 14 6 0 13 -4 16 -10z m400 -48 c-8 -8 -25 10
-25 26 0 13 2 13 14 -4 8 -10 13 -21 11 -22z m162 -44 c0 -7 3 -24 7 -38 l7
-25 -20 24 c-24 27 -27 51 -8 51 8 0 14 -6 14 -12z m-2242 -44 c-20 -15 -61
-12 -79 7 -6 5 11 9 45 9 50 -1 53 -2 34 -16z m52 -24 c-4 -22 -40 -53 -51
-43 -3 3 -6 0 -6 -7 0 -7 -2 -11 -5 -8 -8 8 6 39 15 33 5 -3 17 6 27 19 22 31
24 31 20 6z m2333 -32 c0 -11 -22 -10 -40 2 -11 8 -9 9 13 8 15 -1 27 -6 27
-10z m-102 -133 c-1 -14 -7 -21 -15 -18 -17 7 -17 23 0 24 10 0 10 2 0 6 -7 2
-13 9 -13 14 0 4 7 6 15 3 8 -3 14 -16 13 -29z m212 -52 c24 -64 57 -128 79
-155 12 -16 12 -18 -4 -18 -11 0 -15 -5 -11 -15 4 -10 -1 -15 -16 -15 -21 0
-21 0 -2 -15 18 -14 18 -15 0 -9 -16 6 -17 5 -6 -15 17 -32 9 -34 -36 -10 -21
11 -31 18 -22 15 24 -7 31 22 8 34 -25 13 -51 13 -30 0 8 -5 11 -10 5 -10 -15
0 -142 136 -150 162 -8 23 -8 23 14 4 11 -11 21 -24 21 -31 0 -14 28 -39 52
-48 10 -4 17 -2 15 4 -1 6 14 19 33 30 20 11 28 19 18 19 -10 0 -25 12 -34 26
-14 21 -15 27 -4 34 7 4 14 17 15 27 1 23 13 43 25 43 5 0 18 -26 30 -57z m84
9 c2 -23 0 -42 -5 -42 -5 0 -9 21 -9 47 0 56 8 53 14 -5z m-56 6 c7 -7 12 -20
12 -30 0 -10 5 -18 12 -18 6 0 8 -3 5 -7 -4 -3 2 -12 13 -20 11 -8 20 -22 20
-33 0 -10 14 -30 31 -45 39 -32 32 -44 -11 -18 -21 12 -41 39 -62 83 -17 36
-35 73 -40 83 -10 19 2 23 20 5z m-177 -36 c-5 -2 -7 -10 -4 -18 8 -22 -5 -17
-18 7 -8 15 -8 19 0 15 6 -4 11 -2 11 3 0 6 -5 11 -11 11 -5 0 -7 5 -3 12 5 7
11 5 21 -8 8 -11 10 -20 4 -22z m-1071 13 c0 -8 -4 -15 -10 -15 -5 0 -7 7 -4
15 4 8 8 15 10 15 2 0 4 -7 4 -15z m1120 -28 c0 -16 -18 3 -23 25 -6 22 -5 22
8 4 8 -11 15 -24 15 -29z m298 -43 c4 3 14 0 22 -6 12 -8 12 -9 -2 -4 -21 6
-24 -14 -6 -32 9 -9 8 -12 -5 -12 -9 0 -17 7 -17 15 0 8 -4 15 -10 15 -5 0
-14 9 -20 21 -11 19 -10 20 9 9 12 -6 25 -9 29 -6z m102 -9 c0 -8 -4 -15 -10
-15 -5 0 -10 -6 -10 -13 0 -16 -37 -39 -45 -28 -3 5 4 12 15 16 11 4 18 11 15
16 -4 5 -1 9 5 9 7 0 10 7 6 15 -3 9 0 15 9 15 8 0 15 -7 15 -15z m-1927 -19
c3 -7 3 -31 0 -53 -3 -24 1 -53 11 -77 17 -42 22 -122 7 -128 -5 -1 -11 -10
-13 -18 -2 -8 -10 -20 -18 -27 -13 -10 -11 -12 12 -13 21 0 29 -6 34 -25 3
-14 10 -22 15 -19 5 3 7 10 4 15 -4 5 -1 9 5 9 6 0 13 -13 17 -30 3 -16 8 -30
12 -30 4 0 23 -22 44 -50 l37 -50 -64 -52 c-90 -74 -241 -134 -411 -163 -49
-9 -133 -27 -185 -40 -99 -26 -226 -42 -201 -26 8 5 20 7 28 4 7 -3 13 0 13 7
0 6 5 8 10 5 6 -3 10 1 10 9 0 9 -4 16 -10 16 -14 0 -13 27 1 36 6 3 16 0 21
-7 7 -11 9 -9 5 7 -3 16 2 26 19 35 25 13 33 39 12 40 -7 0 -3 4 8 9 15 6 21
17 22 35 0 16 -4 22 -8 15 -5 -9 -9 -9 -14 -1 -4 6 -2 11 3 11 6 0 11 8 11 17
0 15 2 14 16 -3 15 -18 15 -18 9 4 -5 16 -2 22 9 22 9 0 16 -4 16 -8 0 -5 7
-17 16 -28 15 -18 15 -18 11 8 -2 15 0 32 4 40 4 7 3 18 -3 25 -16 19 -4 16
21 -6 13 -11 21 -24 18 -28 -3 -5 1 -17 9 -28 17 -22 18 -13 3 38 -5 20 -15
37 -22 37 -8 0 -7 4 3 9 8 6 18 7 24 4 5 -3 6 -1 2 6 -4 6 0 14 8 17 9 3 16
10 16 15 0 5 -11 3 -25 -3 -14 -6 -25 -15 -25 -20 0 -4 -7 -8 -15 -8 -9 0 1
16 26 39 35 34 39 43 29 60 -13 26 -27 27 -33 4 -4 -14 -5 -12 -6 5 0 12 4 22
9 22 6 0 10 4 10 10 0 5 -7 7 -15 4 -10 -4 -15 0 -15 11 0 9 5 13 10 10 6 -3
10 -1 10 6 0 7 8 21 18 32 16 19 16 19 -5 13 -14 -5 -23 -3 -23 3 0 6 -7 11
-16 11 -9 0 -12 5 -8 13 5 8 2 7 -9 -2 -16 -12 -17 -12 -11 5 5 16 4 16 -5 4
-6 -8 -8 -23 -5 -33 7 -24 -21 -33 -41 -13 -9 9 -13 16 -8 16 5 0 14 -5 21
-12 9 -9 12 -9 12 -1 0 7 -5 15 -10 18 -7 4 -6 13 1 27 9 16 8 19 -3 15 -7 -2
-12 -10 -10 -17 1 -6 -5 -10 -15 -8 -21 4 -31 38 -11 38 8 0 15 11 16 25 1 18
-3 25 -16 25 -14 0 -15 -2 -2 -10 11 -7 12 -10 2 -10 -7 0 -20 7 -28 15 -14
13 -13 15 3 16 10 1 5 4 -12 8 -22 5 -32 3 -37 -9 -6 -13 -7 -13 -7 2 -1 9 6
24 15 33 9 9 14 19 10 22 -3 4 -11 2 -17 -4 -15 -15 -39 -5 -39 14 0 13 2 13
17 2 9 -8 14 -9 10 -3 -4 7 6 10 31 8 20 -1 43 3 49 8 7 6 20 8 28 4 9 -3 13
-2 10 4 -7 12 -3 12 19 4 9 -3 13 -11 9 -17 -3 -6 -1 -7 6 -3 6 4 9 11 6 16
-3 5 88 9 202 9 115 1 224 5 243 10 49 12 47 13 53 -3z m1800 -5 c4 -1 7 -10
7 -21 0 -27 -22 -25 -48 3 l-21 23 27 -2 c15 -1 30 -3 35 -3z m-390 -58 c-4
-9 -2 -14 3 -11 5 3 17 -5 27 -18 25 -33 1 -30 -28 3 -22 27 -24 43 -5 43 5 0
6 -7 3 -17z m453 6 c3 -6 0 -15 -7 -20 -11 -7 -10 -9 4 -9 9 0 17 -4 17 -8 0
-9 -86 -72 -98 -72 -4 0 -18 12 -31 25 -22 24 -22 25 -3 25 32 0 51 10 46 25
-3 8 6 20 23 29 34 19 40 19 49 5z m-2535 -26 c13 -17 13 -17 -6 -3 -11 8 -22
16 -24 17 -2 2 0 3 6 3 6 0 17 -8 24 -17z m2449 -12 c0 -4 -16 -5 -35 -3 -19
2 -35 7 -35 11 0 4 16 5 35 3 19 -2 35 -7 35 -11z m-2385 -41 c3 -6 -1 -7 -9
-4 -18 7 -21 14 -7 14 6 0 13 -4 16 -10z m1648 -7 c21 -6 23 -23 2 -23 -8 0
-15 5 -15 10 0 6 -6 10 -14 10 -8 0 -18 5 -22 12 -5 8 -2 9 12 4 10 -5 27 -11
37 -13z m583 -18 c18 -13 18 -14 1 -15 -17 0 -17 -2 2 -29 21 -29 21 -29 1
-24 -24 7 -40 32 -37 61 2 26 7 27 33 7z m-2276 -3 c0 -4 -10 -13 -22 -21 -23
-14 -23 -14 -4 8 20 22 26 25 26 13z m1480 -2 c0 -5 -2 -10 -4 -10 -3 0 -8 5
-11 10 -3 6 -1 10 4 10 6 0 11 -4 11 -10z m99 -14 c17 -30 7 -61 -19 -63 -15
-1 -20 4 -20 22 0 13 4 26 10 30 5 3 7 12 3 20 -9 24 13 17 26 -9z m556 1 c13
4 16 3 11 -5 -10 -17 -31 -15 -47 6 -12 15 -12 16 2 4 9 -7 25 -9 34 -5z m82
-39 c25 -24 29 -38 11 -38 -14 0 -58 40 -58 52 0 15 23 8 47 -14z m142 18
c-10 -10 -59 -14 -59 -5 0 5 14 9 32 9 17 0 29 -2 27 -4z m-204 -25 c-4 -12 0
-21 11 -25 9 -4 14 -9 11 -12 -3 -3 -15 0 -27 6 -16 8 -19 15 -11 24 6 7 8 16
4 19 -3 4 -1 7 6 7 8 0 10 -7 6 -19z m-225 -40 c0 -9 -7 -3 -15 13 -19 36 -19
47 0 22 8 -11 15 -27 15 -35z m-1732 21 c2 -7 -3 -12 -11 -12 -8 0 -17 -7 -21
-15 -3 -8 -10 -15 -15 -15 -6 0 -2 13 7 30 17 30 32 34 40 12z m1460 -18 c-4
-3 -12 5 -18 18 -12 22 -12 22 6 6 10 -10 15 -20 12 -24z m-118 -10 c0 -8 -7
-11 -17 -8 -15 5 -15 3 1 -10 23 -18 18 -20 -18 -6 -30 11 -34 35 -9 49 20 11
43 -3 43 -25z m465 -4 c3 -6 -1 -7 -9 -4 -18 7 -21 14 -7 14 6 0 13 -4 16 -10z
m-728 -6 c-3 -4 -2 -15 4 -25 6 -11 6 -19 0 -19 -5 0 -12 7 -15 16 -6 16 0 34
11 34 4 0 3 -3 0 -6z m189 -17 c15 -14 20 -24 12 -24 -8 0 -22 11 -31 24 -10
13 -15 23 -12 23 3 0 17 -10 31 -23z m245 -23 c3 -10 4 -23 2 -27 -3 -4 1 -14
7 -22 7 -9 8 -15 2 -15 -9 0 -17 13 -21 35 -1 6 -8 20 -16 32 -13 19 -12 21 2
19 9 -2 20 -11 24 -22z m-291 -30 c0 -17 -12 -18 -28 -2 -18 18 -15 27 8 21
11 -3 20 -12 20 -19z m64 -61 c4 -11 1 -11 -14 -3 -24 13 -25 17 -5 17 8 0 16
-6 19 -14z m431 -41 c-6 -7 -35 18 -35 31 0 5 9 2 20 -8 11 -10 18 -20 15 -23z
m291 -17 c10 -8 14 -15 8 -15 -5 0 -19 7 -30 15 -10 8 -14 15 -8 15 5 0 19 -7
30 -15z m-756 -40 c0 -8 -2 -15 -4 -15 -2 0 -6 7 -10 15 -3 8 -1 15 4 15 6 0
10 -7 10 -15z m655 -53 c-3 -3 -11 0 -18 7 -9 10 -8 11 6 5 10 -3 15 -9 12
-12z m-2025 -34 c0 -6 -6 -5 -15 2 -8 7 -15 14 -15 16 0 2 7 1 15 -2 8 -4 15
-11 15 -16z m2000 12 c8 -5 11 -10 5 -10 -5 0 -17 5 -25 10 -8 5 -10 10 -5 10
6 0 17 -5 25 -10z m-2037 -17 c-7 -2 -13 -11 -13 -19 0 -9 5 -12 10 -9 6 3 10
-4 10 -16 0 -22 0 -22 -17 -2 -10 11 -25 22 -33 26 -12 4 -11 6 3 6 9 1 17 6
17 11 0 6 8 10 18 9 10 0 12 -3 5 -6z m1024 -32 c12 -14 22 -32 23 -38 0 -7 4
-13 8 -13 5 0 17 -7 28 -16 10 -8 14 -13 7 -10 -6 4 -15 1 -19 -6 -5 -8 -10
-4 -16 11 -4 12 -12 20 -16 17 -16 -9 -67 41 -67 67 -1 31 20 26 52 -12z m983
35 c0 -2 -7 -6 -15 -10 -8 -3 -15 -1 -15 4 0 6 7 10 15 10 8 0 15 -2 15 -4z
m-40 -26 c0 -5 -2 -10 -4 -10 -3 0 -8 5 -11 10 -3 6 -1 10 4 10 6 0 11 -4 11
-10z m-1980 -43 c0 -3 -6 -7 -13 -10 -8 -3 -14 4 -15 20 -2 22 0 23 13 9 8 -8
15 -17 15 -19z m-40 -27 c0 -5 -5 -10 -11 -10 -5 0 -7 5 -4 10 3 6 8 10 11 10
2 0 4 -4 4 -10z m1040 -11 c0 -6 -4 -7 -10 -4 -5 3 -10 11 -10 16 0 6 5 7 10
4 6 -3 10 -11 10 -16z m42 -27 c4 -13 -1 -18 -16 -20 -17 -1 -18 1 -6 8 10 7
11 10 3 10 -7 0 -13 10 -13 21 0 17 3 19 14 10 8 -6 16 -20 18 -29z m701 11
c-7 -2 -19 -2 -25 0 -7 3 -2 5 12 5 14 0 19 -2 13 -5z m2 -15 c20 1 20 1 1
-14 -14 -10 -22 -11 -27 -3 -3 6 -9 10 -13 10 -19 -3 -26 0 -26 10 0 6 9 8 23
3 12 -4 31 -7 42 -6z m219 -3 c3 -8 1 -15 -4 -15 -6 0 -10 7 -10 15 0 8 2 15
4 15 2 0 6 -7 10 -15z m-47 -27 c-3 -8 -6 -5 -6 6 -1 11 2 17 5 13 3 -3 4 -12
1 -19z m-272 2 c-3 -5 -12 -10 -18 -10 -7 0 -6 4 3 10 19 12 23 12 15 0z m8
-27 c-13 -9 -23 -23 -23 -32 0 -13 -2 -14 -9 -2 -10 15 8 41 28 41 6 0 11 5
11 12 0 6 3 8 8 4 4 -5 -3 -15 -15 -23z m67 17 c0 -5 5 -10 11 -10 5 0 7 5 4
10 -3 6 -2 10 3 10 6 0 9 -11 8 -24 -1 -22 -2 -22 -23 -7 -24 17 -30 31 -13
31 6 0 10 -4 10 -10z m-235 -81 c11 -17 0 -20 -21 -4 -17 13 -17 14 -2 15 9 0
20 -5 23 -11z m635 -29 c0 -13 -5 -18 -15 -14 -11 5 -12 9 -2 20 16 18 17 17
17 -6z"/>
<path d="M1740 4173 c0 -19 11 -43 21 -43 13 0 11 14 -6 36 -8 10 -15 14 -15
7z"/>
<path d="M2245 4140 c3 -5 8 -10 11 -10 2 0 4 5 4 10 0 6 -5 10 -11 10 -5 0
-7 -4 -4 -10z"/>
<path d="M2410 4146 c0 -2 8 -10 18 -17 15 -13 16 -12 3 4 -13 16 -21 21 -21
13z"/>
<path d="M2941 4066 c2 -2 20 -6 39 -10 25 -4 31 -3 20 4 -14 9 -69 15 -59 6z"/>
<path d="M2905 3976 l-29 -23 19 -44 c25 -58 31 -65 50 -49 23 19 18 38 -12
42 -23 2 -28 8 -29 31 -1 23 3 27 28 27 22 0 29 4 26 17 -5 25 -20 25 -53 -1z"/>
<path d="M2563 3946 c12 -14 24 -23 26 -20 5 5 -30 44 -40 44 -4 0 2 -11 14
-24z"/>
<path d="M2490 3935 c7 -9 15 -13 17 -11 7 7 -7 26 -19 26 -6 0 -6 -6 2 -15z"/>
<path d="M2680 3877 c14 -12 34 -35 44 -50 9 -16 20 -26 24 -23 3 4 0 12 -6
18 -25 25 -11 28 31 7 41 -21 42 -21 24 -1 -10 11 -30 23 -45 27 -14 3 -38 15
-53 26 -37 26 -50 24 -19 -4z"/>
<path d="M2809 3870 c12 -11 27 -17 33 -14 5 3 -3 12 -17 20 -38 19 -44 17
-16 -6z"/>
<path d="M3019 3783 c-13 -16 -12 -17 4 -4 16 13 21 21 13 21 -2 0 -10 -8 -17
-17z"/>
<path d="M2860 3713 c1 -5 25 -25 55 -46 42 -29 55 -44 55 -63 0 -38 26 -91
54 -109 14 -9 28 -27 32 -38 3 -12 18 -34 32 -50 15 -15 32 -40 39 -55 l13
-27 -6 30 c-3 17 -16 41 -29 55 -12 14 -26 35 -30 48 -4 13 -22 37 -40 53 -26
24 -35 42 -40 80 -6 40 -13 53 -38 71 -18 12 -38 30 -45 40 -13 18 -52 26 -52
11z"/>
<path d="M3070 3640 c0 -5 5 -10 11 -10 5 0 7 5 4 10 -3 6 -8 10 -11 10 -2 0
-4 -4 -4 -10z"/>
<path d="M3054 3604 c3 -9 6 -23 6 -32 0 -9 10 -28 21 -42 15 -18 18 -19 11
-5 -5 11 -12 37 -16 58 -4 20 -12 37 -18 37 -5 0 -7 -7 -4 -16z"/>
<path d="M3150 3571 c0 -5 7 -15 17 -22 15 -13 15 -12 4 9 -12 23 -21 28 -21
13z"/>
<path d="M3051 3313 c0 -5 4 -17 9 -28 8 -18 9 -17 9 8 1 15 -3 27 -9 27 -5 0
-10 -3 -9 -7z"/>
<path d="M3411 3254 c0 -11 3 -14 6 -6 3 7 2 16 -1 19 -3 4 -6 -2 -5 -13z"/>
<path d="M3150 3219 c0 -9 7 -22 15 -29 19 -16 19 0 0 26 -12 16 -14 16 -15 3z"/>
<path d="M3230 3136 c0 -2 8 -10 18 -17 15 -13 16 -12 3 4 -13 16 -21 21 -21
13z"/>
<path d="M3240 3026 c0 -2 7 -9 15 -16 9 -7 15 -8 15 -2 0 5 -7 12 -15 16 -8
3 -15 4 -15 2z"/>
<path d="M3290 2994 c0 -9 53 -54 64 -54 4 0 -6 14 -24 30 -33 31 -40 35 -40
24z"/>
<path d="M3390 2836 c0 -19 -21 -21 -38 -4 -7 7 -12 9 -12 6 0 -14 32 -38 51
-38 20 0 27 34 9 45 -5 3 -10 -1 -10 -9z"/>
<path d="M3470 2841 c0 -10 19 -25 25 -20 1 2 -3 10 -11 17 -8 7 -14 8 -14 3z"/>
<path d="M3441 2780 c14 -31 19 -36 19 -24 0 6 -7 19 -16 30 -14 18 -14 18 -3
-6z"/>
<path d="M3460 2732 c0 -5 7 -15 15 -22 8 -7 15 -8 15 -2 0 5 -7 15 -15 22 -8
7 -15 8 -15 2z"/>
<path d="M3638 2435 c7 -37 22 -41 22 -6 0 20 -5 31 -14 31 -9 0 -12 -8 -8
-25z"/>
<path d="M3571 2394 c0 -11 3 -14 6 -6 3 7 2 16 -1 19 -3 4 -6 -2 -5 -13z"/>
<path d="M3601 2341 c14 -19 36 -38 50 -43 13 -5 20 -5 14 -1 -5 4 -28 24 -50
43 l-39 35 25 -34z"/>
<path d="M3775 2341 c-3 -5 -20 -13 -38 -17 -17 -4 -27 -9 -20 -11 13 -5 6
-34 -11 -45 -13 -8 -8 -13 21 -22 18 -6 20 -4 16 14 -3 13 4 33 21 55 15 19
25 35 22 35 -3 0 -7 -4 -11 -9z"/>
<path d="M3610 2266 c0 -4 11 -21 25 -38 14 -16 25 -26 25 -21 0 11 -49 70
-50 59z"/>
<path d="M3590 2221 c0 -5 5 -13 10 -16 6 -3 10 -2 10 4 0 5 -4 13 -10 16 -5
3 -10 2 -10 -4z"/>
<path d="M3617 2174 c6 -15 23 -19 23 -5 0 5 -7 11 -14 14 -10 4 -13 1 -9 -9z"/>
<path d="M3750 1916 c0 -8 4 -17 9 -21 6 -3 9 4 8 15 -1 23 -17 28 -17 6z"/>
<path d="M3722 1885 c3 -5 8 -23 10 -40 3 -27 4 -28 10 -7 4 14 0 28 -10 40
-10 10 -14 13 -10 7z"/>
<path d="M2004 3548 l-19 -23 23 19 c21 18 27 26 19 26 -2 0 -12 -10 -23 -22z"/>
<path d="M2345 3220 c-3 -5 1 -10 9 -10 8 0 18 5 21 10 3 6 -1 10 -9 10 -8 0
-18 -4 -21 -10z"/>
<path d="M2642 2614 c10 -10 20 -16 22 -13 3 3 -5 11 -17 18 -21 13 -21 12 -5
-5z"/>
<path d="M2363 2512 c-10 -6 -9 -13 3 -30 8 -12 20 -22 26 -22 6 0 3 9 -6 19
-10 11 -15 25 -11 30 7 13 4 14 -12 3z"/>
<path d="M1456 2420 c-16 -5 -17 -8 -4 -12 16 -7 45 7 32 14 -5 3 -18 2 -28
-2z"/>
<path d="M2388 1983 c6 -2 10 -9 6 -14 -3 -5 0 -9 5 -9 6 0 11 7 11 15 0 8 -8
15 -17 14 -11 0 -13 -3 -5 -6z"/>
<path d="M1748 1873 c7 -3 16 -2 19 1 4 3 -2 6 -13 5 -11 0 -14 -3 -6 -6z"/>
<path d="M3300 1834 c0 -7 7 -27 15 -45 10 -24 14 -28 14 -14 0 21 -28 78 -29
59z"/>
<path d="M3228 1652 c-22 -4 -23 -21 -3 -48 8 -12 11 -25 7 -29 -4 -5 -2 -5 4
-2 6 3 25 -3 42 -13 l32 -20 0 30 c0 17 -5 30 -11 30 -6 0 -8 -7 -5 -16 4 -10
2 -14 -6 -11 -7 2 -12 9 -11 16 5 20 -31 67 -49 63z"/>
<path d="M2225 1629 c5 -14 3 -19 -3 -15 -15 9 -6 -31 13 -60 8 -13 19 -24 23
-24 4 0 14 -21 20 -47 9 -33 16 -43 22 -34 5 9 15 11 26 7 16 -6 17 -5 2 11
-8 10 -19 31 -22 48 -4 16 -11 32 -15 35 -4 3 -19 26 -34 53 -29 50 -43 61
-32 26z"/>
<path d="M3200 1573 c1 -40 20 -98 36 -110 24 -18 39 -16 21 2 -8 8 -20 37
-27 65 -12 50 -30 77 -30 43z"/>
<path d="M3145 1498 c0 -13 8 -31 18 -40 21 -22 24 -4 5 37 -14 31 -23 32 -23
3z"/>
<path d="M3309 1483 c14 -27 4 -31 -15 -5 -12 16 -13 16 -8 -3 3 -11 17 -29
32 -40 23 -16 25 -16 13 -1 -11 13 -12 19 -3 25 9 5 6 13 -9 27 -22 19 -22 19
-10 -3z"/>
<path d="M3005 1347 c11 -9 27 -17 35 -17 8 0 36 -11 62 -25 26 -14 53 -25 60
-25 23 0 -60 49 -99 59 -21 5 -47 12 -58 16 l-20 8 20 -16z"/>
<path d="M3183 1341 c16 -5 35 -15 43 -22 8 -6 17 -10 19 -7 10 9 -22 28 -56
33 -32 5 -32 5 -6 -4z"/>
<path d="M3343 1343 c9 -2 23 -2 30 0 6 3 -1 5 -18 5 -16 0 -22 -2 -12 -5z"/>
<path d="M2947 1268 c16 -18 33 -42 36 -53 6 -18 5 -17 -9 3 -20 27 -35 29
-31 4 5 -36 44 -71 91 -84 25 -7 46 -16 46 -20 0 -4 10 -8 22 -8 17 0 19 3 10
12 -17 17 -15 26 6 30 15 3 14 6 -7 23 -14 11 -35 30 -48 43 -13 12 -27 22
-30 22 -4 0 -18 10 -32 23 l-26 22 19 -22 c28 -34 4 -28 -29 7 -16 17 -33 30
-39 30 -5 0 4 -15 21 -32z m78 -76 c-8 -8 -25 10 -19 20 4 6 9 5 15 -3 4 -7 6
-15 4 -17z"/>
<path d="M2863 1244 c-15 -7 -1 -46 27 -76 17 -19 20 -19 20 -5 0 17 -26 88
-32 86 -2 0 -8 -3 -15 -5z"/>
<path d="M2919 1193 c12 -23 29 -38 37 -31 2 3 -8 15 -22 29 -25 23 -26 23
-15 2z"/>
<path d="M2890 1121 c0 -6 4 -13 10 -16 6 -3 7 1 4 9 -7 18 -14 21 -14 7z"/>
<path d="M1120 2200 c-11 -8 -7 -9 15 -4 37 8 45 14 19 14 -10 0 -26 -5 -34
-10z"/>
<path d="M1186 2134 c-4 -10 -12 -14 -24 -9 -14 5 -15 4 -4 -6 10 -11 15 -10
29 4 9 9 14 19 11 22 -3 3 -8 -2 -12 -11z"/>
<path d="M1070 2134 c0 -3 9 -15 20 -26 18 -19 22 -20 34 -8 13 13 12 17 -1
29 -13 12 -14 11 -8 -8 4 -12 2 -21 -4 -21 -6 0 -11 6 -11 14 0 8 -7 16 -15
20 -8 3 -15 3 -15 0z"/>
<path d="M1006 2057 c3 -10 9 -15 12 -12 3 3 0 11 -7 18 -10 9 -11 8 -5 -6z"/>
<path d="M830 1423 c0 -6 8 -17 18 -24 16 -13 16 -13 2 6 -8 11 -16 22 -17 24
-2 2 -3 0 -3 -6z"/>
<path d="M831 1343 c0 -4 4 -17 9 -28 8 -19 9 -19 9 2 1 12 -3 25 -9 28 -5 3
-10 3 -9 -2z"/>
<path d="M1381 1244 c10 -13 10 -17 -1 -24 -11 -7 -10 -11 3 -24 8 -9 21 -16
28 -16 7 0 -1 -12 -17 -26 -16 -15 -21 -24 -12 -21 12 4 19 -3 27 -24 6 -16 8
-36 5 -44 -4 -8 -1 -15 6 -15 8 0 10 10 7 27 -5 29 7 61 29 78 8 6 17 25 20
43 6 30 5 32 -23 32 -16 0 -38 7 -49 15 -25 19 -40 19 -23 -1z"/>
<path d="M2270 842 c0 -4 10 -13 23 -21 22 -14 22 -14 3 8 -20 22 -26 25 -26
13z"/>
<path d="M2050 760 c0 -5 5 -10 11 -10 5 0 7 5 4 10 -3 6 -8 10 -11 10 -2 0
-4 -4 -4 -10z"/>
<path d="M2760 903 c0 -4 5 -15 10 -23 8 -13 10 -13 10 2 0 9 -4 20 -10 23 -5
3 -10 3 -10 -2z"/>
<path d="M513 856 c4 -10 -2 -16 -16 -19 -14 -3 -11 -4 8 -4 17 1 37 -3 45 -7
8 -4 6 0 -5 9 -11 9 -19 21 -17 26 1 5 -3 9 -9 9 -6 0 -9 -6 -6 -14z"/>
<path d="M582 786 c7 -8 15 -12 17 -11 5 6 -10 25 -20 25 -5 0 -4 -6 3 -14z"/>
<path d="M611 764 c0 -11 3 -14 6 -6 3 7 2 16 -1 19 -3 4 -6 -2 -5 -13z"/>
<path d="M970 733 c0 -6 8 -17 18 -24 16 -13 16 -13 2 6 -8 11 -16 22 -17 24
-2 2 -3 0 -3 -6z"/>
<path d="M675 710 c-3 -6 1 -7 9 -4 18 7 21 14 7 14 -6 0 -13 -4 -16 -10z"/>
<path d="M750 691 c0 -5 -8 -12 -17 -14 -15 -4 -15 -5 -2 -6 9 0 22 6 29 14 9
10 9 15 1 15 -6 0 -11 -4 -11 -9z"/>
<path d="M800 680 c0 -5 5 -10 10 -10 6 0 10 5 10 10 0 6 -4 10 -10 10 -5 0
-10 -4 -10 -10z"/>
<path d="M695 620 c-8 -12 2 -30 17 -30 7 0 7 5 -1 14 -9 11 -9 15 1 19 9 4 9
6 1 6 -6 1 -15 -3 -18 -9z"/>
<path d="M725 570 c-3 -5 -1 -10 4 -10 6 0 11 5 11 10 0 6 -2 10 -4 10 -3 0
-8 -4 -11 -10z"/>
<path d="M640 335 c0 -8 4 -15 10 -15 5 0 7 7 4 15 -4 8 -8 15 -10 15 -2 0 -4
-7 -4 -15z"/>
<path d="M567 263 c-10 -10 -8 -23 4 -23 5 0 8 4 5 9 -4 5 0 12 6 14 7 3 8 6
2 6 -6 1 -14 -2 -17 -6z"/>
<path d="M550 196 c0 -2 7 -7 16 -10 8 -3 12 -2 9 4 -6 10 -25 14 -25 6z"/>
<path d="M490 181 c0 -5 7 -11 15 -15 8 -3 15 -1 15 3 0 5 -7 11 -15 15 -8 3
-15 1 -15 -3z"/>
<path d="M2640 707 c0 -3 12 -12 26 -22 15 -9 23 -12 20 -6 -7 11 -46 35 -46
28z"/>
<path d="M2243 4534 c-10 -27 11 -35 24 -8 9 19 8 24 -3 24 -8 0 -17 -7 -21
-16z"/>
<path d="M2297 4520 c3 -11 9 -22 13 -25 5 -3 6 4 3 15 -3 11 -9 22 -13 25 -5
3 -6 -4 -3 -15z"/>
<path d="M1140 4455 c-10 -12 -10 -15 4 -15 9 0 16 7 16 15 0 8 -2 15 -4 15
-2 0 -9 -7 -16 -15z"/>
<path d="M935 4340 c3 -5 8 -10 11 -10 2 0 4 5 4 10 0 6 -5 10 -11 10 -5 0 -7
-4 -4 -10z"/>
<path d="M768 4213 c7 -3 16 -2 19 1 4 3 -2 6 -13 5 -11 0 -14 -3 -6 -6z"/>
<path d="M670 4120 c0 -5 5 -10 11 -10 5 0 7 5 4 10 -3 6 -8 10 -11 10 -2 0
-4 -4 -4 -10z"/>
<path d="M785 4120 c-3 -6 1 -7 9 -4 18 7 21 14 7 14 -6 0 -13 -4 -16 -10z"/>
<path d="M4521 4064 c0 -11 3 -14 6 -6 3 7 2 16 -1 19 -3 4 -6 -2 -5 -13z"/>
<path d="M551 3984 c0 -11 3 -14 6 -6 3 7 2 16 -1 19 -3 4 -6 -2 -5 -13z"/>
<path d="M1033 3956 c-28 -13 -29 -22 -4 -35 20 -11 43 6 47 35 3 16 -11 16
-43 0z"/>
<path d="M890 3755 c7 -9 15 -13 17 -11 7 7 -7 26 -19 26 -6 0 -6 -6 2 -15z"/>
<path d="M146 3591 c-3 -5 1 -11 9 -15 8 -3 15 -1 15 4 0 13 -18 22 -24 11z"/>
<path d="M147 3533 c6 -15 13 -16 31 -4 10 6 7 10 -11 13 -18 4 -24 1 -20 -9z"/>
<path d="M660 3530 c0 -6 4 -10 10 -10 5 0 25 -16 45 -37 37 -38 42 -38 24 0
-11 25 -79 65 -79 47z"/>
<path d="M80 3480 c0 -5 5 -10 11 -10 5 0 7 5 4 10 -3 6 -8 10 -11 10 -2 0 -4
-4 -4 -10z"/>
<path d="M80 3456 c0 -2 7 -6 15 -10 8 -3 15 -1 15 4 0 6 -7 10 -15 10 -8 0
-15 -2 -15 -4z"/>
<path d="M0 3370 c0 -23 4 -28 18 -24 15 5 15 4 -1 -9 -11 -9 -17 -23 -14 -34
4 -17 5 -17 6 0 1 11 6 15 13 11 7 -4 8 -3 4 4 -11 19 5 14 20 -5 7 -10 15
-15 19 -11 4 3 -3 16 -15 28 -12 12 -19 27 -17 33 3 11 -15 37 -27 37 -3 0 -6
-13 -6 -30z"/>
<path d="M3860 3342 c0 -10 21 -32 32 -32 16 0 8 19 -12 30 -11 6 -20 7 -20 2z"/>
<path d="M4576 3215 c2 -30 0 -34 -12 -24 -12 10 -12 14 -2 20 15 10 6 12 -15
3 -11 -4 -14 -15 -10 -39 7 -42 -2 -78 -24 -100 -28 -29 -12 -164 24 -202 17
-19 25 -16 14 5 -20 37 -33 126 -22 152 9 23 10 23 10 4 1 -12 8 -37 16 -57 8
-19 11 -37 8 -41 -4 -3 -1 -6 5 -6 16 0 15 -63 0 -78 -9 -9 -18 -6 -40 15 -34
33 -38 12 -3 -23 l24 -24 25 21 c23 20 24 27 24 127 -1 58 -3 114 -6 124 -6
26 -20 13 -17 -17 2 -14 0 -23 -5 -20 -11 7 -3 59 10 63 8 3 8 8 -1 18 -9 11
-8 14 4 14 11 0 14 11 13 47 0 25 -6 48 -11 50 -6 2 -10 -12 -9 -32z"/>
<path d="M779 3103 c-30 -20 -79 -56 -109 -80 -143 -113 -346 -264 -416 -308
-17 -11 -82 -58 -143 -103 l-111 -84 0 -59 c0 -32 2 -59 4 -59 4 0 111 74 300
208 65 45 134 91 154 102 78 40 346 237 394 288 l38 40 -17 46 c-10 25 -23 46
-29 46 -6 0 -36 -16 -65 -37z"/>
<path d="M4335 3130 c3 -5 8 -10 11 -10 2 0 4 5 4 10 0 6 -5 10 -11 10 -5 0
-7 -4 -4 -10z"/>
<path d="M3930 3092 c6 -13 14 -21 18 -18 3 4 -2 14 -12 24 -18 16 -18 16 -6
-6z"/>
<path d="M4350 3103 c0 -21 22 -62 36 -67 12 -5 12 -1 -1 22 -23 44 -35 58
-35 45z"/>
<path d="M4443 3037 c0 -56 14 -83 34 -61 9 9 9 13 -2 18 -10 4 -15 20 -15 51
0 25 -4 45 -9 45 -5 0 -8 -24 -8 -53z"/>
<path d="M4400 3014 c0 -15 29 -83 30 -69 0 6 4 3 10 -5 5 -8 12 -11 17 -6 4
4 0 12 -10 18 -11 5 -25 24 -33 42 -7 17 -13 26 -14 20z"/>
<path d="M4391 2952 c-1 -28 27 -92 40 -92 5 0 9 -8 9 -17 0 -20 39 -75 40
-56 0 6 -5 15 -11 19 -6 3 -9 19 -7 35 3 15 1 26 -2 24 -12 -7 -39 29 -54 71
-11 30 -15 34 -15 16z"/>
<path d="M4298 2909 c11 -14 13 -38 12 -109 -1 -13 -6 -28 -13 -32 -8 -5 -7
-8 4 -8 12 0 15 -7 12 -24 -3 -16 1 -25 13 -30 15 -6 15 -4 3 10 -10 13 -11
18 -2 21 7 3 9 13 3 32 -4 16 -6 48 -3 72 4 37 1 47 -18 64 -13 11 -18 13 -11
4z"/>
<path d="M4365 2870 c13 -37 13 -40 -3 -40 -14 0 -14 -2 -3 -9 8 -5 11 -16 7
-26 -5 -15 -4 -16 9 -5 8 7 15 22 15 33 0 27 -22 87 -32 87 -4 0 -1 -18 7 -40z"/>
<path d="M4220 2890 c0 -5 5 -10 11 -10 5 0 7 5 4 10 -3 6 -8 10 -11 10 -2 0
-4 -4 -4 -10z"/>
<path d="M4581 2826 c-8 -10 -9 -16 -1 -21 16 -10 12 -28 -5 -21 -12 4 -13 2
-5 -13 7 -14 6 -21 -3 -24 -7 -3 -6 -6 5 -6 9 -1 19 -9 21 -18 3 -10 5 4 4 30
0 26 -5 50 -10 54 -5 3 -3 9 4 14 7 4 11 11 8 14 -4 3 -12 -1 -18 -9z"/>
<path d="M4094 2796 c9 -21 16 -46 16 -55 1 -19 27 -57 35 -49 3 3 -2 14 -12
24 -13 12 -14 19 -5 22 9 3 8 7 -3 19 -8 8 -15 23 -15 32 0 10 -7 25 -16 32
-15 12 -15 10 0 -25z"/>
<path d="M4520 2766 c0 -37 -4 -66 -10 -66 -5 0 -10 -4 -10 -9 0 -5 8 -7 19
-4 15 4 20 17 23 61 4 39 1 61 -8 70 -12 11 -14 3 -14 -52z"/>
<path d="M4203 2759 c13 -36 33 -75 45 -87 12 -12 22 -26 22 -31 0 -5 7 -11
15 -15 20 -7 6 21 -24 48 -12 11 -28 43 -37 72 -8 29 -22 58 -30 65 -11 9 -9
-5 9 -52z"/>
<path d="M4380 2742 c0 -5 14 -21 30 -37 17 -16 30 -26 30 -23 0 3 -13 19 -30
36 -16 18 -30 28 -30 24z"/>
<path d="M4350 2695 c0 -4 9 -20 20 -35 54 -77 91 -200 60 -200 -16 0 -16 -35
0 -60 48 -73 68 -150 39 -150 -5 0 -9 -12 -9 -26 0 -14 -4 -23 -10 -19 -14 8
-13 -8 1 -22 13 -13 4 -33 -16 -33 -20 0 -28 17 -36 78 -8 55 -14 70 -25 59
-4 -4 -2 -12 3 -19 6 -7 11 -28 11 -46 0 -18 3 -45 5 -60 2 -15 2 -21 0 -14
-3 6 -9 12 -15 12 -6 0 -7 -7 -3 -17 4 -10 13 -38 20 -63 8 -25 18 -60 24 -77
5 -18 7 -33 4 -33 -3 0 0 -7 7 -15 7 -9 10 -18 6 -22 -3 -3 -6 -1 -6 6 0 7 -4
10 -9 7 -11 -7 -23 22 -15 35 3 5 1 9 -5 9 -5 0 -12 -10 -14 -22 -4 -19 -4
-18 -6 5 0 16 -5 25 -11 22 -5 -3 -3 12 4 33 14 38 13 39 -5 35 -18 -5 -25 10
-20 40 0 4 -6 7 -15 7 -8 0 -12 5 -9 10 3 6 1 10 -5 10 -8 0 -9 -6 -4 -17 5
-10 9 -54 11 -97 1 -66 7 -88 32 -136 17 -32 31 -68 31 -81 0 -19 -2 -21 -10
-9 -8 13 -10 13 -10 -1 0 -9 3 -19 6 -22 12 -12 41 -107 33 -107 -4 0 -11 9
-14 20 -3 11 -13 27 -21 35 -9 8 -11 15 -5 15 6 0 11 8 11 18 0 14 -2 15 -10
2 -12 -18 -12 -18 -16 44 -2 30 -11 60 -23 77 -12 16 -21 33 -21 38 0 5 -5 13
-10 16 -7 4 -9 -2 -4 -19 4 -16 2 -26 -5 -26 -6 0 -8 -11 -4 -30 3 -20 1 -30
-6 -30 -8 0 -10 8 -6 20 4 14 2 20 -9 20 -25 0 -24 -42 3 -95 14 -27 31 -56
38 -63 13 -14 6 -45 -8 -36 -5 3 -7 9 -4 14 6 9 -11 44 -32 67 -9 10 -12 10
-17 -2 -3 -8 -1 -15 4 -15 5 0 12 -26 16 -57 6 -53 16 -72 37 -73 5 0 5 5 2
10 -3 6 -1 10 5 10 7 0 10 -7 6 -15 -3 -9 8 -30 29 -52 19 -20 33 -39 31 -41
-12 -11 -45 12 -56 38 -13 31 -37 56 -46 48 -2 -3 7 -19 21 -36 25 -30 33 -48
16 -38 -5 4 -7 -4 -3 -16 5 -21 6 -21 13 -2 5 11 8 -15 7 -66 -1 -47 -7 -88
-13 -92 -6 -5 -6 -8 3 -8 6 0 12 -12 12 -27 0 -20 -3 -24 -9 -14 -7 11 -9 11
-14 0 -4 -10 -6 -9 -6 4 -1 9 5 17 12 17 8 0 7 3 -3 10 -10 6 -14 28 -15 69 0
33 2 58 6 55 11 -6 -1 56 -18 96 -8 19 -16 43 -18 54 -3 10 -9 23 -14 30 -6 7
-6 17 -1 26 5 9 5 17 0 20 -5 3 -11 21 -13 41 -2 19 -6 40 -10 46 -4 6 -4 19
0 30 6 16 5 16 -10 4 -21 -17 -22 -7 -1 24 9 13 13 29 9 35 -3 5 0 10 7 10 9
0 10 2 1 8 -13 8 -16 23 -14 71 l1 34 27 -24 26 -24 -26 36 c-15 20 -27 44
-27 53 0 10 -5 26 -10 37 -6 11 -7 19 -1 19 11 0 71 -92 71 -110 0 -9 4 -10
13 -2 15 13 21 62 7 62 -6 0 -10 -6 -10 -12 0 -17 -27 24 -32 47 -1 10 -9 26
-16 35 -7 8 -23 30 -35 49 -12 19 -29 37 -37 39 -11 4 -10 0 4 -16 10 -11 19
-32 20 -45 0 -14 6 -22 11 -19 6 3 4 -2 -4 -11 -10 -13 -12 -37 -8 -95 5 -72
4 -75 -9 -49 -8 15 -19 27 -25 27 -6 0 -6 -7 1 -20 16 -30 17 -129 1 -184
l-14 -48 -19 38 c-10 21 -18 46 -18 56 0 10 -4 18 -9 18 -14 0 -20 -25 -10
-41 5 -8 6 -23 3 -34 -4 -16 -3 -17 5 -5 9 13 11 13 11 -2 0 -10 -7 -18 -15
-18 -17 0 -30 41 -22 70 8 30 -13 100 -30 100 -11 0 -13 -5 -7 -17 4 -10 11
-45 14 -78 4 -33 11 -71 15 -84 5 -15 3 -26 -6 -33 -10 -7 -8 -8 8 -5 13 3 26
0 30 -6 14 -22 33 -82 33 -104 0 -13 5 -23 12 -23 9 0 9 -3 0 -12 -8 -8 -8
-16 0 -32 10 -19 10 -20 -5 -7 -10 7 -17 17 -17 22 0 4 -5 20 -12 36 -12 29
-15 38 -17 61 0 7 -5 10 -11 7 -5 -3 -10 -2 -10 3 0 6 7 12 15 16 8 3 15 11
15 18 0 9 -3 8 -10 -2 -9 -13 -10 -13 -10 0 0 12 -2 12 -9 2 -10 -17 -25 0
-36 43 -5 17 -9 33 -10 38 -2 4 -3 12 -4 17 0 6 -5 10 -10 10 -27 0 73 -249
133 -329 14 -19 26 -45 26 -58 0 -13 6 -23 13 -23 8 0 7 -4 -3 -10 -12 -8 -13
-13 -2 -30 8 -13 8 -20 2 -20 -6 0 -25 29 -41 65 -17 36 -37 65 -45 65 -7 0
-16 11 -20 25 -3 14 -23 40 -44 58 -28 24 -46 53 -70 115 -17 45 -35 82 -40
82 -17 0 46 -152 79 -189 11 -13 24 -40 27 -60 4 -20 14 -46 22 -58 8 -13 11
-23 6 -23 -4 0 -3 -5 4 -12 7 -7 12 -17 12 -23 0 -5 -5 -3 -10 5 -8 13 -10 13
-10 -2 0 -9 4 -18 10 -20 5 -1 11 -16 12 -33 1 -16 6 -36 11 -42 6 -9 5 -13
-4 -13 -12 0 -12 -2 -1 -9 8 -4 12 -18 10 -30 -3 -19 -6 -17 -22 16 -10 21
-25 50 -32 65 -9 17 -11 29 -4 33 14 9 12 47 -4 68 -20 26 -30 20 -12 -8 19
-28 21 -55 5 -55 -11 0 -11 -8 9 -98 9 -38 1 -59 -11 -29 -4 9 -8 8 -16 -3 -6
-9 -7 -16 -1 -18 6 -2 10 -10 10 -19 0 -30 -29 14 -33 50 -4 34 -30 92 -84
185 -34 57 -42 45 -11 -15 14 -26 24 -56 22 -66 -1 -9 1 -15 6 -12 12 7 47
-57 48 -86 0 -45 23 -109 42 -119 23 -12 26 -30 6 -30 -8 0 -17 -4 -20 -9 -4
-5 4 -7 16 -3 14 3 19 2 14 -7 -4 -6 -12 -9 -17 -6 -5 4 -9 2 -9 -4 0 -5 6
-12 13 -14 6 -3 2 -6 -10 -6 -19 -1 -21 3 -17 33 3 23 -2 40 -16 56 -18 21
-60 134 -60 164 0 6 -9 22 -20 36 l-19 25 5 -25 c3 -14 7 -41 11 -60 5 -34 5
-34 -11 -13 -9 11 -21 34 -28 50 -11 27 -12 27 -16 5 -2 -15 4 -30 19 -43 12
-10 18 -19 13 -19 -5 -1 2 -7 15 -14 26 -14 58 -76 39 -76 -6 0 -1 -8 10 -19
12 -10 19 -20 17 -23 -3 -3 -1 -18 5 -33 12 -31 3 -77 -10 -55 -5 7 -6 20 -2
28 3 10 1 13 -6 8 -13 -8 -42 80 -42 126 0 15 -4 28 -10 28 -5 0 -10 -12 -10
-27 0 -33 -9 -25 -16 13 -7 37 -24 56 -24 27 0 -28 -29 -38 -46 -16 -8 10 -5
-4 6 -31 12 -27 19 -57 18 -65 -2 -9 6 -25 18 -36 26 -24 39 -107 16 -103 -18
4 -64 86 -56 99 3 5 0 8 -7 7 -7 -2 -15 6 -17 17 -6 30 -32 54 -50 48 -14 -4
-14 -3 -3 5 12 8 12 14 3 25 -7 7 -9 17 -5 20 3 4 0 7 -9 7 -8 0 -15 -7 -15
-15 0 -8 3 -15 7 -15 4 0 5 -14 2 -30 -5 -34 15 -90 32 -90 6 -1 0 -7 -14 -15
-14 -8 -20 -14 -14 -15 6 0 11 -7 11 -15 0 -11 -3 -12 -14 -3 -8 6 -11 18 -8
26 3 8 -3 16 -14 19 -14 4 -19 12 -17 31 2 16 -6 35 -20 51 -13 14 -24 33 -24
41 0 22 -16 44 -23 32 -8 -11 41 -112 54 -112 5 0 9 -5 9 -12 0 -6 -9 -3 -20
7 -11 10 -22 16 -25 14 -4 -5 41 -78 55 -89 3 -3 14 -39 24 -82 10 -42 24 -88
32 -103 8 -15 14 -45 14 -67 0 -31 10 -55 40 -100 22 -33 40 -64 40 -68 0 -4
9 -10 20 -13 12 -3 20 -14 20 -25 0 -12 5 -24 12 -28 8 -5 9 0 5 17 -4 13 -7
27 -7 31 0 4 -9 10 -20 13 -11 3 -20 11 -20 16 0 6 9 5 21 -2 23 -12 24 -8 4
46 -4 11 2 7 14 -10 12 -18 18 -38 15 -49 -4 -12 -2 -16 5 -12 7 4 11 -1 11
-12 0 -11 7 -23 16 -26 8 -3 12 -10 9 -16 -3 -5 -1 -10 4 -10 14 0 14 11 1 44
-6 16 -6 27 0 31 6 4 10 -5 10 -18 0 -14 7 -30 15 -37 8 -7 12 -16 9 -21 -3
-5 1 -9 9 -9 8 0 13 -9 12 -23 -1 -12 2 -25 8 -28 5 -4 10 -15 11 -25 2 -29
48 -104 59 -97 6 4 8 -2 5 -14 -4 -13 2 -27 14 -37 10 -9 16 -22 12 -28 -8
-12 -20 1 -82 86 -47 63 -116 96 -202 96 -39 0 -74 6 -85 14 -11 7 -37 19 -58
26 -21 7 -60 31 -86 54 -27 22 -69 58 -95 79 -44 36 -53 51 -106 172 -5 11
-14 37 -20 58 -6 20 -15 37 -20 37 -23 0 51 -181 99 -245 21 -27 43 -61 51
-74 18 -34 6 -100 -31 -179 -26 -57 -54 -90 -181 -214 l-149 -148 746 0 746 0
-2 1075 c-1 804 -4 1075 -12 1075 -9 0 -9 2 0 8 8 5 9 13 3 22 -5 9 -5 19 1
27 6 7 7 18 3 25 -10 15 -13 78 -5 78 3 0 7 12 8 27 1 18 -2 22 -8 12 -5 -9
-8 -2 -6 21 2 42 -23 191 -33 203 -4 5 -6 24 -3 43 3 22 -1 39 -11 50 -15 14
-16 12 -17 -23 -2 -32 -3 -34 -6 -9 -6 38 -26 59 -42 43 -14 -14 -15 -40 -1
-32 6 4 8 11 5 16 -4 5 -2 9 4 9 13 0 24 -37 16 -51 -4 -6 -13 -8 -21 -5 -8 3
-14 1 -14 -3 0 -14 28 -21 33 -8 2 7 6 0 9 -15 3 -16 1 -28 -3 -28 -5 0 -9 5
-9 12 0 6 -2 9 -5 7 -8 -9 21 -79 30 -72 4 5 5 2 0 -6 -7 -12 -10 -11 -22 4
-12 17 -13 14 -11 -23 1 -22 5 -39 10 -36 4 3 8 -20 8 -51 0 -64 -10 -65 -41
-4 -19 39 -18 79 2 79 28 0 -12 115 -67 190 -24 34 -44 49 -44 35z m190 -237
c0 -23 -3 -29 -9 -19 -8 12 -4 51 5 51 2 0 4 -15 4 -32z m20 -88 c0 -7 -6 -6
-15 4 -8 8 -15 20 -15 26 0 7 6 6 15 -4 8 -8 15 -20 15 -26z m-20 -53 c0 -5
-4 -5 -10 -2 -5 3 -10 14 -10 23 0 15 2 15 10 2 5 -8 10 -19 10 -23z m16 -24
c-11 -11 -17 4 -9 23 7 18 8 18 11 1 2 -10 1 -21 -2 -24z m4 -72 c-1 -26 -3
-32 -10 -20 -5 8 -11 27 -14 42 -3 19 -1 24 10 20 9 -3 14 -19 14 -42z m-41
-26 c2 -68 -14 -91 -23 -32 -8 47 -3 97 10 97 6 0 12 -26 13 -65z m-23 -227
c3 -27 11 -48 17 -48 6 0 7 -3 4 -7 -4 -3 3 -17 15 -30 12 -13 18 -23 14 -23
-4 0 -25 18 -46 41 -48 51 -70 124 -44 144 20 14 14 54 -12 79 -14 15 -14 16
5 16 12 0 22 6 23 13 1 6 5 -22 9 -63 5 -41 11 -96 15 -122z m49 172 c3 -5 1
-10 -4 -10 -6 0 -11 5 -11 10 0 6 2 10 4 10 3 0 8 -4 11 -10z m-102 -37 c2
-10 8 -26 12 -37 6 -14 4 -17 -10 -15 -13 3 -19 14 -20 37 -2 34 9 44 18 15z
m95 -15 c-2 -6 -10 -13 -16 -14 -7 -1 -8 0 -2 3 5 2 8 9 4 14 -3 5 0 9 6 9 7
0 10 -5 8 -12z m39 -90 c-3 -8 -6 -5 -6 6 -1 11 2 17 5 13 3 -3 4 -12 1 -19z
m-18 -70 c-1 -20 -2 -21 -6 -3 -3 11 -9 24 -14 30 -16 16 -10 27 6 11 8 -8 14
-25 14 -38z m-149 -8 c0 -5 -5 -10 -11 -10 -5 0 -7 5 -4 10 3 6 8 10 11 10 2
0 4 -4 4 -10z m40 -15 c7 -9 8 -15 2 -15 -5 0 -12 7 -16 15 -3 8 -4 15 -2 15
2 0 9 -7 16 -15z m-50 -17 c0 -6 -6 -5 -15 2 -8 7 -15 14 -15 16 0 2 7 1 15
-2 8 -4 15 -11 15 -16z m179 -42 c-2 -27 -2 -28 -6 -6 -3 14 -9 29 -14 35 -15
15 -10 28 6 15 8 -7 14 -27 14 -44z m-102 25 c-3 -15 -1 -18 11 -14 11 5 14 2
9 -9 -3 -9 2 -23 14 -34 21 -19 25 -34 8 -34 -5 0 -7 5 -4 10 3 6 1 10 -4 10
-6 0 -11 -5 -11 -11 0 -5 -5 -7 -12 -3 -9 6 -9 9 0 12 7 2 12 9 12 15 0 5 -3
7 -7 4 -3 -4 -15 5 -25 20 -20 31 -23 48 -8 38 6 -3 10 -1 10 4 0 6 3 11 6 11
4 0 4 -9 1 -19z m-151 -29 c-9 -8 -26 10 -26 26 1 15 2 15 15 -2 8 -11 13 -21
11 -24z m105 8 c5 0 9 -34 9 -77 0 -42 -3 -73 -6 -70 -6 6 -9 22 -15 97 -1 8
-7 21 -13 29 -8 11 -8 13 2 7 6 -4 12 -3 12 3 0 5 -5 13 -10 16 -6 4 -7 12 -3
18 5 8 9 7 11 -5 2 -10 8 -18 13 -18z m-98 -35 c4 -8 2 -17 -3 -20 -6 -4 -10
3 -10 14 0 25 6 27 13 6z m227 -66 c0 -16 5 -29 13 -29 8 0 7 -4 -3 -10 -13
-9 -13 -11 0 -20 9 -6 11 -10 3 -10 -16 0 -36 37 -28 50 4 6 2 9 -3 8 -6 -2
-10 1 -10 6 0 5 -6 13 -14 18 -9 7 -6 8 10 5 18 -4 22 -2 18 9 -3 9 -1 12 4 9
6 -3 10 -19 10 -36z m-235 21 c3 -5 1 -10 -4 -10 -6 0 -11 5 -11 10 0 6 2 10
4 10 3 0 8 -4 11 -10z m-116 -89 l-1 -46 -13 35 c-7 19 -14 49 -14 65 0 29 0
29 14 11 9 -11 15 -40 14 -65z m121 59 c0 -5 0 -13 -1 -16 0 -3 8 -13 19 -22
11 -9 27 -48 37 -87 18 -72 40 -116 47 -95 3 9 7 8 15 -2 10 -11 7 -14 -12
-16 -23 -2 -41 17 -73 77 -10 20 -10 26 0 33 7 4 8 8 2 8 -5 0 -19 7 -30 16
-18 14 -18 15 4 4 20 -10 22 -8 22 14 0 13 -6 26 -14 29 -16 6 -39 67 -25 67
5 0 9 -4 9 -10z m169 -44 c-3 -3 -11 5 -18 17 -13 21 -12 21 5 5 10 -10 16
-20 13 -22z m-338 -6 c5 0 8 -25 8 -56 -1 -36 -5 -51 -10 -42 -15 26 -30 109
-22 121 5 8 9 7 11 -5 2 -10 8 -18 13 -18z m372 -50 c3 -13 0 -20 -9 -20 -8 0
-13 9 -12 24 3 28 13 26 21 -4z m-119 -5 c3 -8 1 -15 -4 -15 -6 0 -10 7 -10
15 0 8 2 15 4 15 2 0 6 -7 10 -15z m69 -15 c3 -11 1 -20 -4 -20 -5 0 -9 9 -9
20 0 11 2 20 4 20 2 0 6 -9 9 -20z m54 -30 c1 -11 -2 -18 -8 -15 -11 7 -12 35
-1 35 4 0 8 -9 9 -20z m20 -32 c-3 -7 -5 -2 -5 12 0 14 2 19 5 13 2 -7 2 -19
0 -25z m-347 2 c0 -5 -2 -10 -4 -10 -3 0 -8 5 -11 10 -3 6 -1 10 4 10 6 0 11
-4 11 -10z m-40 -37 c-1 -24 -2 -26 -11 -10 -5 9 -7 22 -4 27 10 17 15 11 15
-17z m52 3 c3 2 8 -2 11 -11 10 -24 -16 -18 -32 8 -13 19 -12 21 1 10 8 -7 17
-10 20 -7z m315 -38 c-3 -8 -6 -5 -6 6 -1 11 2 17 5 13 3 -3 4 -12 1 -19z
m-287 -29 c0 -16 -4 -29 -9 -29 -5 0 -7 10 -3 22 4 17 2 20 -12 15 -10 -4 -15
-3 -11 3 3 6 -1 7 -9 4 -10 -4 -16 -1 -16 8 0 10 9 13 30 10 25 -4 30 -9 30
-33z m230 -11 c0 -47 -2 -47 -23 5 -15 35 -15 37 4 37 16 0 19 -7 19 -42z
m-410 -21 c0 -5 -7 -4 -15 3 -8 7 -15 20 -15 29 1 13 3 13 15 -3 8 -11 15 -24
15 -29z m126 24 c-3 -5 1 -12 10 -15 9 -4 14 -13 10 -22 -3 -8 -2 -12 4 -9 6
3 10 1 10 -4 0 -6 -6 -11 -14 -11 -15 0 -39 54 -29 64 9 9 15 7 9 -3z m221
-63 c-3 -7 -5 -2 -5 12 0 14 2 19 5 13 2 -7 2 -19 0 -25z m-288 -88 l0 -35
-16 30 c-16 30 -25 93 -16 109 9 13 33 -65 32 -104z m258 -22 c-3 -8 -6 -5 -6
6 -1 11 2 17 5 13 3 -3 4 -12 1 -19z m-239 -94 c2 -32 7 -63 11 -68 16 -20 32
-83 25 -99 -5 -14 -10 -10 -28 16 -21 30 -34 92 -40 182 -1 17 -6 37 -11 45
-8 12 -5 12 15 -1 21 -14 25 -26 28 -75z m41 42 c-3 -3 -11 5 -18 17 -13 21
-12 21 5 5 10 -10 16 -20 13 -22z m-350 -78 c13 -16 24 -43 24 -59 0 -15 4
-26 9 -23 7 5 11 -14 11 -58 0 -10 4 -18 8 -18 5 0 9 -5 9 -11 0 -8 -5 -8 -15
1 -8 7 -15 18 -15 25 0 7 -9 32 -19 55 -11 24 -17 50 -13 58 3 10 1 13 -6 8
-11 -6 -32 22 -32 43 0 19 14 11 39 -21z m220 18 c7 -8 8 -17 3 -19 -4 -3 -13
3 -20 14 -14 22 0 26 17 5z m-54 -26 c21 0 42 -41 49 -100 17 -133 21 -178 14
-174 -5 3 -8 15 -8 27 0 12 -9 35 -19 51 -11 17 -18 33 -15 38 3 4 1 8 -5 8
-6 0 -6 13 1 36 13 50 3 100 -22 107 -11 3 -20 11 -19 19 0 10 2 10 6 1 2 -7
11 -13 18 -13z m85 -15 c0 -8 -4 -15 -10 -15 -5 0 -7 7 -4 15 4 8 8 15 10 15
2 0 4 -7 4 -15z m-366 -20 c3 -8 1 -15 -4 -15 -6 0 -10 7 -10 15 0 8 2 15 4
15 2 0 6 -7 10 -15z m668 -93 c-4 -12 -7 -11 -14 2 -5 9 -6 21 -3 26 3 6 1 10
-5 10 -6 0 -8 5 -4 11 9 15 34 -30 26 -49z m-633 -26 c-2 -27 -2 -28 -6 -6 -3
14 -10 31 -15 38 -8 9 -7 11 6 6 10 -4 16 -17 15 -38z m431 -8 c0 -9 4 -8 10
2 5 8 10 10 10 4 0 -6 -6 -17 -14 -23 -11 -9 -15 -7 -19 9 -3 11 -1 20 4 20 5
0 9 -6 9 -12z m-466 -30 c-3 -4 -1 -8 3 -8 14 0 13 -40 0 -40 -7 -1 4 -10 23
-21 19 -11 27 -18 18 -15 -12 4 -18 0 -18 -10 0 -34 -26 -4 -44 50 -16 48 -17
59 -5 66 14 9 32 -8 23 -22z m240 18 c-3 -7 2 -16 10 -19 10 -4 16 -19 16 -37
0 -19 9 -39 23 -53 13 -12 14 -15 4 -7 -19 14 -19 14 -8 -7 8 -16 8 -23 1 -23
-6 0 -13 8 -16 18 -4 9 -13 32 -21 50 -8 18 -12 36 -8 41 3 5 0 11 -7 13 -11
4 -5 38 6 38 3 0 3 -6 0 -14z m263 -58 c-3 -8 -6 -5 -6 6 -1 11 2 17 5 13 3
-3 4 -12 1 -19z m-387 -23 c0 -8 4 -15 8 -15 5 0 9 -7 9 -15 0 -25 -14 -17
-26 15 -6 18 -6 30 0 30 5 0 9 -7 9 -15z m-42 -70 c-3 -3 -9 2 -12 12 -6 14
-5 15 5 6 7 -7 10 -15 7 -18z m102 -25 c0 -5 -2 -10 -4 -10 -3 0 -8 5 -11 10
-3 6 -1 10 4 10 6 0 11 -4 11 -10z m-88 -165 c7 -16 5 -16 -12 4 -11 13 -20
33 -19 45 0 19 1 19 11 -4 5 -14 14 -34 20 -45z m91 -22 c-3 -7 -9 -10 -14 -7
-14 8 -11 21 5 21 8 0 12 -6 9 -14z m111 -134 c-2 -4 1 -9 6 -11 6 -2 12 -10
14 -18 5 -26 19 -54 34 -70 9 -8 10 -16 4 -18 -5 -1 -7 -13 -4 -25 4 -18 1
-17 -21 9 -15 18 -27 35 -27 39 0 4 -8 14 -17 21 -17 13 -17 14 2 7 18 -6 18
-4 -4 20 -13 15 -25 35 -26 44 -1 10 -7 28 -13 40 -23 42 -12 46 22 8 19 -21
33 -42 30 -46z"/>
<path d="M789 2643 c-13 -16 -12 -17 4 -4 9 7 17 15 17 17 0 8 -8 3 -21 -13z"/>
<path d="M685 2590 c-105 -67 -389 -230 -565 -322 -91 -48 -135 -78 -115 -78
6 0 26 10 45 22 19 11 78 45 130 73 52 29 124 69 160 90 36 20 92 52 125 70
33 17 83 46 110 63 28 17 75 45 105 63 82 48 97 59 80 58 -8 0 -42 -18 -75
-39z"/>
<path d="M4326 2607 c3 -10 9 -15 12 -12 3 3 0 11 -7 18 -10 9 -11 8 -5 -6z"/>
<path d="M4587 2613 c-10 -10 -8 -56 3 -73 7 -11 10 -2 10 33 0 48 -1 52 -13
40z"/>
<path d="M4115 2569 c-4 -6 -5 -12 -2 -15 2 -3 7 2 10 11 7 17 1 20 -8 4z"/>
<path d="M4111 2481 c11 -33 27 -65 35 -71 10 -9 9 1 -5 41 -28 80 -32 89 -41
89 -5 0 0 -27 11 -59z"/>
<path d="M4175 2496 c2 -13 8 -32 13 -42 8 -14 9 -11 7 17 -2 18 -4 37 -4 42
-1 4 -5 7 -10 7 -4 0 -7 -11 -6 -24z"/>
<path d="M4360 2481 c5 -11 15 -23 21 -27 6 -3 3 5 -6 20 -20 30 -30 35 -15 7z"/>
<path d="M4210 2483 c0 -5 7 -18 15 -29 13 -18 14 -18 8 4 -5 22 -23 41 -23
25z"/>
<path d="M4050 2479 c0 -4 7 -22 15 -40 8 -19 14 -27 14 -19 0 14 -28 72 -29
59z"/>
<path d="M4270 2447 c0 -9 10 -22 23 -28 l22 -12 -20 24 c-11 13 -21 26 -22
28 -2 2 -3 -3 -3 -12z"/>
<path d="M4175 2395 c3 -55 14 -107 24 -115 4 -3 12 -26 19 -53 6 -26 22 -68
34 -94 12 -26 21 -57 20 -70 -1 -13 2 -23 7 -23 18 0 18 39 -2 81 -23 50 -37
98 -44 152 -3 20 -9 37 -15 37 -5 0 -7 4 -4 9 4 5 1 11 -5 13 -14 5 -21 58 -8
58 5 0 9 4 9 10 0 5 -6 7 -14 4 -9 -4 -16 3 -19 18 -3 13 -4 1 -2 -27z"/>
<path d="M4285 2385 c9 -38 35 -98 41 -92 5 4 -33 107 -43 117 -2 3 -2 -9 2
-25z"/>
<path d="M435 2344 c-49 -26 -109 -56 -133 -68 -48 -23 -63 -37 -32 -29 11 3
23 9 26 14 14 23 22 8 26 -48 1 -7 5 -13 9 -13 4 0 5 -9 2 -20 -5 -20 -11 -21
-98 -23 -11 -1 -30 5 -42 13 -17 11 -19 17 -11 28 7 8 -32 -8 -85 -34 l-97
-49 0 -123 c0 -95 3 -123 13 -119 6 2 12 13 12 24 1 11 20 40 44 64 31 32 39
45 27 47 -12 3 -11 8 9 28 28 28 32 39 10 30 -20 -7 -19 4 3 21 16 13 16 13
-2 11 -10 -2 -21 2 -22 7 -5 12 -6 12 201 19 88 3 174 9 190 14 l30 9 -40 6
c-22 4 -53 5 -69 2 -16 -2 -39 3 -50 11 -20 14 -20 14 2 14 13 0 21 4 17 9 -6
10 84 100 115 115 19 9 24 46 5 46 -5 0 1 9 15 20 37 29 25 25 -75 -26z"/>
<path d="M4246 2349 c3 -19 10 -38 16 -44 7 -7 9 1 4 25 -9 46 -26 63 -20 19z"/>
<path d="M4090 2358 c0 -9 9 -37 20 -63 11 -26 20 -55 20 -66 0 -10 5 -19 11
-19 5 0 7 -4 4 -10 -3 -6 1 -7 10 -4 11 5 13 10 5 19 -5 7 -19 37 -29 68 -11
31 -24 65 -30 74 -9 16 -10 16 -11 1z"/>
<path d="M4397 2337 c3 -15 9 -27 14 -27 13 0 11 13 -5 35 -13 18 -14 18 -9
-8z"/>
<path d="M4070 2278 c0 -9 5 -20 10 -23 13 -8 13 5 0 25 -8 13 -10 13 -10 -2z"/>
<path d="M4435 2280 c3 -5 8 -10 11 -10 2 0 4 5 4 10 0 6 -5 10 -11 10 -5 0
-7 -4 -4 -10z"/>
<path d="M4290 2235 c0 -8 4 -15 10 -15 5 0 7 7 4 15 -4 8 -8 15 -10 15 -2 0
-4 -7 -4 -15z"/>
<path d="M209 2223 c-13 -17 -13 -17 6 -3 11 8 22 16 24 17 2 2 0 3 -6 3 -6 0
-17 -8 -24 -17z"/>
<path d="M4260 2195 c0 -5 5 -17 10 -25 5 -8 10 -10 10 -5 0 6 -5 17 -10 25
-5 8 -10 11 -10 5z"/>
<path d="M4076 2171 c-3 -5 3 -11 13 -14 14 -3 18 -1 14 9 -6 16 -19 18 -27 5z"/>
<path d="M4073 2135 c0 -8 4 -12 9 -9 4 3 8 9 8 15 0 5 -4 9 -8 9 -5 0 -9 -7
-9 -15z"/>
<path d="M928 2124 c-16 -8 -28 -17 -28 -19 0 -6 52 16 65 27 15 13 -7 9 -37
-8z"/>
<path d="M4110 2127 c0 -10 9 -28 21 -40 l21 -22 -13 30 c-17 40 -29 53 -29
32z"/>
<path d="M4111 1980 c1 -76 5 -99 20 -119 20 -25 26 -13 9 18 -5 11 -6 39 -2
67 7 46 -3 102 -21 120 -4 4 -7 -35 -6 -86z"/>
<path d="M4050 2035 c0 -5 5 -17 10 -25 5 -8 10 -10 10 -5 0 6 -5 17 -10 25
-5 8 -10 11 -10 5z"/>
<path d="M206 1951 c-20 -16 -32 -32 -27 -35 12 -8 79 49 70 58 -3 4 -23 -7
-43 -23z"/>
<path d="M3897 1570 c3 -11 9 -22 13 -25 5 -3 6 4 3 15 -3 11 -9 22 -13 25 -5
3 -6 -4 -3 -15z"/>
<path d="M3946 1492 c6 -4 17 -24 24 -45 16 -51 25 -40 9 12 -8 26 -18 41 -28
41 -10 0 -12 -3 -5 -8z"/>
<path d="M3911 1443 c11 -21 17 -43 15 -50 -3 -7 1 -10 8 -7 16 6 10 37 -12
72 -23 36 -31 25 -11 -15z"/>
<path d="M3820 1341 c0 -5 5 -13 10 -16 6 -3 10 -2 10 4 0 5 -4 13 -10 16 -5
3 -10 2 -10 -4z"/>
<path d="M3761 1294 c-1 -12 6 -28 16 -35 15 -13 15 -12 6 6 -6 11 -13 27 -16
35 -4 10 -6 8 -6 -6z"/>
<path d="M3790 1220 c6 -11 12 -20 14 -20 2 0 2 9 -1 20 -3 11 -9 20 -15 20
-5 0 -4 -9 2 -20z"/>
<path d="M3990 1230 c0 -5 5 -10 11 -10 5 0 7 5 4 10 -3 6 -8 10 -11 10 -2 0
-4 -4 -4 -10z"/>
<path d="M3526 1080 c8 -30 33 -70 44 -70 4 0 12 -12 17 -27 33 -92 44 -145
23 -113 -5 8 -10 11 -10 5 0 -5 -9 7 -20 28 -11 20 -19 42 -18 48 2 6 -4 16
-13 22 -21 14 -53 1 -45 -18 3 -8 1 -15 -4 -15 -14 0 -13 26 2 49 9 14 8 23
-6 42 l-17 24 2 -25 c1 -14 -4 -45 -11 -70 l-13 -45 -13 30 c-15 35 -19 11 -4
-31 5 -16 12 -49 15 -74 3 -25 6 -51 7 -58 1 -9 4 -10 12 -2 7 7 7 16 -2 30
-9 15 -9 18 1 14 9 -3 13 3 13 17 -2 41 20 29 33 -18 20 -73 20 -73 30 -73 5
0 7 9 4 20 -4 14 0 20 11 20 9 0 16 -5 16 -11 0 -5 5 -7 10 -4 6 3 10 -1 10
-9 0 -9 5 -16 10 -16 6 0 10 5 10 12 0 7 13 -9 29 -34 40 -62 55 -69 30 -13
-19 44 -19 77 1 45 14 -22 23 -5 10 19 -6 12 -8 27 -4 33 4 6 3 8 -3 5 -6 -4
-19 14 -31 41 -23 56 -36 132 -22 132 5 0 7 7 4 15 -4 8 -10 15 -15 15 -4 0
-6 -7 -3 -15 4 -8 3 -15 0 -15 -4 0 -11 12 -17 27 -7 20 -12 24 -18 14 -6 -9
-16 0 -35 31 -18 28 -24 34 -20 18z m21 -131 c2 -17 -1 -18 -13 -9 -17 15 -18
30 -1 30 7 0 13 -9 14 -21z m108 -150 c11 -16 1 -19 -13 -3 -7 8 -8 14 -3 14
5 0 13 -5 16 -11z"/>
<path d="M3330 995 c0 -5 5 -17 10 -25 5 -8 10 -10 10 -5 0 6 -5 17 -10 25 -5
8 -10 11 -10 5z"/>
<path d="M3575 750 c3 -5 8 -10 11 -10 2 0 4 5 4 10 0 6 -5 10 -11 10 -5 0 -7
-4 -4 -10z"/>
<path d="M3627 665 c18 -38 28 -43 37 -19 3 8 2 12 -4 9 -5 -3 -15 5 -22 19
-6 14 -15 26 -19 26 -5 0 -1 -16 8 -35z"/>
<path d="M3695 640 c3 -5 8 -10 11 -10 2 0 4 5 4 10 0 6 -5 10 -11 10 -5 0 -7
-4 -4 -10z"/>
<path d="M2897 440 c-18 -26 -23 -60 -8 -60 11 0 34 56 29 71 -3 8 -11 4 -21
-11z"/>
<path d="M3880 435 c0 -2 6 -8 13 -14 10 -8 14 -7 14 2 0 8 -6 14 -14 14 -7 0
-13 -1 -13 -2z"/>
<path d="M2752 308 c-7 -7 -12 -18 -12 -25 0 -7 -4 -13 -10 -13 -21 0 -9 -28
25 -59 19 -17 35 -27 35 -22 0 4 -7 15 -16 22 -13 10 -15 24 -11 61 7 53 6 53
-11 36z"/>
<path d="M4040 266 c0 -2 8 -10 18 -17 15 -13 16 -12 3 4 -13 16 -21 21 -21
13z"/>
<path d="M2485 240 c3 -5 8 -10 11 -10 2 0 4 5 4 10 0 6 -5 10 -11 10 -5 0 -7
-4 -4 -10z"/>
<path d="M2697 159 c41 -40 61 -79 40 -79 -6 0 -7 -3 -3 -7 4 -4 15 -8 24 -8
11 0 19 -11 22 -29 5 -27 6 -28 19 -12 8 9 15 30 16 46 1 24 -1 28 -12 19 -13
-12 -43 3 -43 22 0 11 -82 89 -94 89 -5 0 8 -18 31 -41z"/>
<path d="M2711 104 c0 -11 3 -14 6 -6 3 7 2 16 -1 19 -3 4 -6 -2 -5 -13z"/>
<path d="M2690 80 c0 -6 7 -10 15 -10 8 0 15 2 15 4 0 2 -7 6 -15 10 -8 3 -15
1 -15 -4z"/>
</g>
</svg>
